<svg xmlns="http://www.w3.org/2000/svg" xmlns:xlink="http://www.w3.org/1999/xlink" width="1920" zoomAndPan="magnify" viewBox="0 0 1440 809.999993" height="1080" preserveAspectRatio="xMidYMid meet" version="1.0"><defs><clipPath id="5f046820d7"><path d="M 526.09375 431 L 913 431 L 913 598.84375 L 526.09375 598.84375 Z M 526.09375 431 " clip-rule="nonzero"/></clipPath><clipPath id="7ac035881f"><path d="M 526.09375 352 L 913 352 L 913 449 L 526.09375 449 Z M 526.09375 352 " clip-rule="nonzero"/></clipPath><clipPath id="9b97021f5a"><path d="M 526.09375 273 L 913 273 L 913 370 L 526.09375 370 Z M 526.09375 273 " clip-rule="nonzero"/></clipPath><clipPath id="d2d2e37939"><path d="M 526.09375 211.09375 L 913 211.09375 L 913 291 L 526.09375 291 Z M 526.09375 211.09375 " clip-rule="nonzero"/></clipPath><clipPath id="f1dacc1a94"><path d="M 798 211.09375 L 816 211.09375 L 816 291 L 798 291 Z M 798 211.09375 " clip-rule="nonzero"/></clipPath><clipPath id="6af9b40e10"><path d="M 798 431 L 816 431 L 816 598.84375 L 798 598.84375 Z M 798 431 " clip-rule="nonzero"/></clipPath><clipPath id="9a22c4488b"><path d="M 622 211.09375 L 641 211.09375 L 641 291 L 622 291 Z M 622 211.09375 " clip-rule="nonzero"/></clipPath><clipPath id="9abb091e64"><path d="M 622 431 L 641 431 L 641 598.84375 L 622 598.84375 Z M 622 431 " clip-rule="nonzero"/></clipPath></defs><rect x="-144" width="1728" fill="#ffffff" y="-80.999999" height="971.999992" fill-opacity="1"/><rect x="-144" width="1728" fill="#ffffff" y="-80.999999" height="971.999992" fill-opacity="1"/><g clip-path="url(#5f046820d7)"><path fill="#04247c" d="M 526.09375 440.09375 C 526.09375 435.25 530.023438 431.320312 534.867188 431.320312 L 903.375 431.320312 C 908.21875 431.320312 912.148438 435.25 912.148438 440.09375 L 912.148438 589.25 C 912.148438 594.09375 908.21875 598.023438 903.375 598.023438 L 534.867188 598.023438 C 530.023438 598.023438 526.09375 594.09375 526.09375 589.25 Z M 543.640625 448.867188 L 543.640625 580.476562 L 894.597656 580.476562 L 894.597656 448.867188 Z M 543.640625 448.867188 " fill-opacity="1" fill-rule="evenodd"/></g><g clip-path="url(#7ac035881f)"><path fill="#04247c" d="M 561.945312 357.5625 C 563.355469 354.394531 566.496094 352.355469 569.964844 352.355469 L 868.277344 352.355469 C 871.746094 352.355469 874.886719 354.394531 876.292969 357.5625 L 911.390625 436.53125 C 912.597656 439.242188 912.347656 442.382812 910.730469 444.875 C 909.109375 447.363281 906.34375 448.867188 903.371094 448.867188 L 534.867188 448.867188 C 531.898438 448.867188 529.128906 447.363281 527.511719 444.875 C 525.890625 442.382812 525.644531 439.242188 526.847656 436.53125 Z M 575.664062 369.902344 L 548.367188 431.320312 L 889.871094 431.320312 L 862.574219 369.902344 Z M 575.664062 369.902344 " fill-opacity="1" fill-rule="evenodd"/></g><g clip-path="url(#9b97021f5a)"><path fill="#04247c" d="M 561.945312 364.691406 C 563.355469 367.859375 566.496094 369.902344 569.964844 369.902344 L 868.277344 369.902344 C 871.746094 369.902344 874.886719 367.859375 876.292969 364.691406 L 911.390625 285.726562 C 912.597656 283.011719 912.347656 279.871094 910.730469 277.382812 C 909.109375 274.890625 906.34375 273.386719 903.371094 273.386719 L 534.867188 273.386719 C 531.898438 273.386719 529.128906 274.890625 527.511719 277.382812 C 525.890625 279.871094 525.644531 283.011719 526.847656 285.726562 Z M 575.664062 352.355469 L 548.367188 290.9375 L 889.871094 290.9375 L 862.574219 352.355469 Z M 575.664062 352.355469 " fill-opacity="1" fill-rule="evenodd"/></g><g clip-path="url(#d2d2e37939)"><path fill="#04247c" d="M 526.09375 282.164062 C 526.09375 243.398438 557.519531 211.96875 596.285156 211.96875 L 841.957031 211.96875 C 880.71875 211.96875 912.148438 243.398438 912.148438 282.164062 L 903.375 282.164062 L 903.375 290.9375 L 534.867188 290.9375 C 530.023438 290.9375 526.09375 287.007812 526.09375 282.164062 Z M 544.367188 273.386719 L 893.871094 273.386719 C 889.695312 248.492188 868.039062 229.519531 841.957031 229.519531 L 596.285156 229.519531 C 570.199219 229.519531 548.546875 248.492188 544.367188 273.386719 Z M 544.367188 273.386719 " fill-opacity="1" fill-rule="evenodd"/></g><path fill="#04247c" d="M 648.929688 440.09375 C 648.929688 474.011719 676.425781 501.511719 710.347656 501.511719 L 727.894531 501.511719 C 761.8125 501.511719 789.3125 474.011719 789.3125 440.09375 L 780.539062 440.09375 L 780.539062 431.320312 L 657.703125 431.320312 C 652.855469 431.320312 648.929688 435.25 648.929688 440.09375 Z M 667.355469 448.867188 L 770.886719 448.867188 C 766.824219 468.890625 749.117188 483.964844 727.894531 483.964844 L 710.347656 483.964844 C 689.121094 483.964844 671.417969 468.890625 667.355469 448.867188 Z M 667.355469 448.867188 " fill-opacity="1" fill-rule="evenodd"/><g clip-path="url(#f1dacc1a94)"><path fill="#04247c" d="M 806.859375 211.96875 C 811.703125 211.96875 815.632812 215.898438 815.632812 220.746094 L 815.632812 282.164062 C 815.632812 287.007812 811.703125 290.9375 806.859375 290.9375 C 802.015625 290.9375 798.085938 287.007812 798.085938 282.164062 L 798.085938 220.746094 C 798.085938 215.898438 802.015625 211.96875 806.859375 211.96875 Z M 806.859375 211.96875 " fill-opacity="1" fill-rule="evenodd"/></g><g clip-path="url(#6af9b40e10)"><path fill="#04247c" d="M 806.859375 431.320312 C 811.703125 431.320312 815.632812 435.25 815.632812 440.09375 L 815.632812 589.25 C 815.632812 594.09375 811.703125 598.023438 806.859375 598.023438 C 802.015625 598.023438 798.085938 594.09375 798.085938 589.25 L 798.085938 440.09375 C 798.085938 435.25 802.015625 431.320312 806.859375 431.320312 Z M 806.859375 431.320312 " fill-opacity="1" fill-rule="evenodd"/></g><g clip-path="url(#9a22c4488b)"><path fill="#04247c" d="M 631.378906 211.96875 C 636.226562 211.96875 640.15625 215.898438 640.15625 220.746094 L 640.15625 282.164062 C 640.15625 287.007812 636.226562 290.9375 631.378906 290.9375 C 626.535156 290.9375 622.605469 287.007812 622.605469 282.164062 L 622.605469 220.746094 C 622.605469 215.898438 626.535156 211.96875 631.378906 211.96875 Z M 631.378906 211.96875 " fill-opacity="1" fill-rule="evenodd"/></g><g clip-path="url(#9abb091e64)"><path fill="#04247c" d="M 631.378906 431.320312 C 636.226562 431.320312 640.15625 435.25 640.15625 440.09375 L 640.15625 589.25 C 640.15625 594.09375 636.226562 598.023438 631.378906 598.023438 C 626.535156 598.023438 622.605469 594.09375 622.605469 589.25 L 622.605469 440.09375 C 622.605469 435.25 626.535156 431.320312 631.378906 431.320312 Z M 631.378906 431.320312 " fill-opacity="1" fill-rule="evenodd"/></g></svg>