<svg xmlns="http://www.w3.org/2000/svg" xmlns:xlink="http://www.w3.org/1999/xlink" width="1920" zoomAndPan="magnify" viewBox="0 0 1440 809.999993" height="1080" preserveAspectRatio="xMidYMid meet" version="1.0"><rect x="-144" width="1728" fill="#ffffff" y="-80.999999" height="971.999992" fill-opacity="1"/><rect x="-144" width="1728" fill="#ffffff" y="-80.999999" height="971.999992" fill-opacity="1"/><path fill="#04247c" d="M 654.265625 206.246094 L 654.265625 295.449219 L 792.742188 434.019531 L 792.742188 603.703125 L 928.847656 603.703125 L 928.847656 206.246094 Z M 776.144531 328.3125 L 692.820312 328.3125 L 692.820312 253.859375 L 776.097656 253.859375 L 776.097656 328.3125 Z M 890.292969 530.621094 L 806.96875 530.621094 L 806.96875 456.121094 L 890.292969 456.121094 Z M 890.292969 328.3125 L 806.96875 328.3125 L 806.96875 253.859375 L 890.292969 253.859375 Z M 890.292969 328.3125 " fill-opacity="1" fill-rule="nonzero"/><path fill="#04247c" d="M 604.898438 540.867188 L 666.597656 540.867188 L 666.597656 603.703125 L 604.898438 603.703125 Z M 604.898438 540.867188 " fill-opacity="1" fill-rule="nonzero"/><path fill="#04247c" d="M 515.835938 449.339844 L 515.835938 603.703125 L 567.910156 603.703125 L 567.910156 503.921875 L 703.632812 503.921875 L 703.632812 603.703125 L 755.703125 603.703125 L 755.703125 449.339844 L 635.769531 329.308594 Z M 515.835938 449.339844 " fill-opacity="1" fill-rule="nonzero"/></svg>