<svg width="522" height="510" viewBox="0 0 522 510" fill="none" xmlns="http://www.w3.org/2000/svg">
<path d="M121.324 470.565L136.512 392.289C130.07 386.84 123.593 380.27 117.081 372.579C110.569 364.888 105.106 357.357 100.694 349.987L19.8489 356.478L0.286335 240.279L80.6028 216.969C81.1023 213.16 82.0736 208.968 83.5167 204.394C84.9598 199.82 86.3226 195.771 87.6052 192.248C88.8877 188.724 90.4463 184.746 92.281 180.315C94.1156 175.883 96.0657 172.048 98.1314 168.809L51.5893 99.3256L141.266 22.887L199.025 79.8256C207.142 77.0158 216.167 74.7579 226.1 73.0522C236.032 71.3464 245.145 70.6727 253.44 71.0311L292.334 0.718283L400.398 40.0506L385.21 118.327C391.652 123.775 398.263 130.283 405.042 137.849C411.821 145.416 417.15 153.009 421.028 160.628L501.873 154.137L511.654 212.236L521.436 270.336L441.547 292.472C440.905 296.672 439.862 301.06 438.419 305.634C436.976 310.208 435.542 314.452 434.117 318.368C432.692 322.283 431.098 326.358 429.334 330.594C427.571 334.83 425.585 338.763 423.377 342.393L470.133 411.29L380.456 487.728L322.697 430.79C314.58 433.599 305.617 435.991 295.809 437.964C286.001 439.936 276.754 440.672 268.069 440.171L229.388 509.897L121.324 470.565ZM162.34 445.587L214.023 464.398L246.187 401.612C260.248 403.182 274.265 402.742 288.238 400.289C302.211 397.837 315.606 393.623 328.423 387.646L380.845 437.321L419.728 403.585L379.27 342.968C383.259 336.881 386.919 330.786 390.249 324.682C393.579 318.578 396.456 312.198 398.878 305.542C401.301 298.886 403.296 292.185 404.865 285.439C406.433 278.694 407.45 271.637 407.915 264.268L477.871 243.838L469.77 193.001L397.682 197.358C392.382 183.901 385.302 171.68 376.441 160.695C367.58 149.71 356.654 140.745 343.663 133.8L359.382 65.0285L307.699 46.2174L275.535 109.003C261.225 106.899 247.084 107.072 233.111 109.525C219.138 111.977 205.867 116.458 193.299 122.969L140.877 73.294L101.994 107.03L142.451 167.648C138.463 173.734 134.803 179.829 131.473 185.933C128.143 192.037 125.266 198.417 122.844 205.073C120.421 211.729 118.523 218.466 117.151 225.283C115.778 232.099 114.664 239.121 113.807 246.347L43.8508 266.777L51.9522 317.614L124.04 313.257C130.017 326.074 137.569 337.913 146.697 348.773C155.824 359.633 166.279 368.98 178.059 376.816L162.34 445.587Z" fill="#0458AB"/>
<ellipse cx="260" cy="253" rx="115" ry="120" fill="white"/>
<path d="M178.924 197V178.54H186.75C187.599 178.54 188.379 178.713 189.09 179.06C189.801 179.407 190.416 179.875 190.936 180.464C191.473 181.053 191.889 181.712 192.184 182.44C192.479 183.168 192.626 183.913 192.626 184.676C192.626 185.716 192.383 186.704 191.898 187.64C191.413 188.576 190.745 189.339 189.896 189.928C189.047 190.517 188.041 190.812 186.88 190.812H182.512V197H178.924ZM182.512 187.666H186.672C187.105 187.666 187.495 187.545 187.842 187.302C188.189 187.059 188.466 186.713 188.674 186.262C188.882 185.794 188.986 185.265 188.986 184.676C188.986 184.035 188.865 183.489 188.622 183.038C188.397 182.587 188.093 182.249 187.712 182.024C187.348 181.799 186.949 181.686 186.516 181.686H182.512V187.666ZM195.565 191.904V183.376H199.049V191.15C199.049 192.19 199.24 192.979 199.621 193.516C200.003 194.036 200.566 194.296 201.311 194.296C201.762 194.296 202.204 194.209 202.637 194.036C203.088 193.845 203.495 193.568 203.859 193.204C204.241 192.84 204.561 192.381 204.821 191.826V183.376H208.305V193.1C208.305 193.464 208.366 193.724 208.487 193.88C208.626 194.036 208.843 194.131 209.137 194.166V197C208.791 197.052 208.496 197.087 208.253 197.104C208.028 197.139 207.82 197.156 207.629 197.156C207.005 197.156 206.494 197.017 206.095 196.74C205.714 196.445 205.489 196.047 205.419 195.544L205.341 194.452C204.735 195.371 203.955 196.073 203.001 196.558C202.048 197.026 200.999 197.26 199.855 197.26C198.451 197.26 197.385 196.809 196.657 195.908C195.929 194.989 195.565 193.655 195.565 191.904ZM225.339 197H221.855V189.356C221.855 188.264 221.665 187.467 221.283 186.964C220.902 186.461 220.373 186.21 219.697 186.21C219.229 186.21 218.753 186.331 218.267 186.574C217.799 186.817 217.375 187.155 216.993 187.588C216.612 188.004 216.335 188.489 216.161 189.044V197H212.677V183.376H215.823V185.898C216.17 185.309 216.612 184.815 217.149 184.416C217.687 184 218.302 183.688 218.995 183.48C219.706 183.255 220.451 183.142 221.231 183.142C222.081 183.142 222.774 183.298 223.311 183.61C223.866 183.905 224.282 184.312 224.559 184.832C224.854 185.335 225.053 185.907 225.157 186.548C225.279 187.189 225.339 187.839 225.339 188.498V197ZM237.367 196.298C237.072 196.419 236.717 196.558 236.301 196.714C235.885 196.87 235.434 196.991 234.949 197.078C234.481 197.182 234.004 197.234 233.519 197.234C232.877 197.234 232.288 197.121 231.751 196.896C231.213 196.671 230.78 196.315 230.451 195.83C230.139 195.327 229.983 194.677 229.983 193.88V186.054H228.189V183.376H229.983V178.956H233.467V183.376H236.327V186.054H233.467V192.71C233.484 193.178 233.614 193.516 233.857 193.724C234.099 193.932 234.403 194.036 234.767 194.036C235.131 194.036 235.486 193.975 235.833 193.854C236.179 193.733 236.457 193.629 236.665 193.542L237.367 196.298ZM239.961 191.904V183.376H243.445V191.15C243.445 192.19 243.636 192.979 244.017 193.516C244.399 194.036 244.962 194.296 245.707 194.296C246.158 194.296 246.6 194.209 247.033 194.036C247.484 193.845 247.891 193.568 248.255 193.204C248.637 192.84 248.957 192.381 249.217 191.826V183.376H252.701V193.1C252.701 193.464 252.762 193.724 252.883 193.88C253.022 194.036 253.239 194.131 253.533 194.166V197C253.187 197.052 252.892 197.087 252.649 197.104C252.424 197.139 252.216 197.156 252.025 197.156C251.401 197.156 250.89 197.017 250.491 196.74C250.11 196.445 249.885 196.047 249.815 195.544L249.737 194.452C249.131 195.371 248.351 196.073 247.397 196.558C246.444 197.026 245.395 197.26 244.251 197.26C242.847 197.26 241.781 196.809 241.053 195.908C240.325 194.989 239.961 193.655 239.961 191.904ZM256.138 192.97C256.138 192.086 256.38 191.315 256.866 190.656C257.368 189.98 258.062 189.46 258.946 189.096C259.83 188.732 260.844 188.55 261.988 188.55C262.56 188.55 263.14 188.593 263.73 188.68C264.319 188.767 264.83 188.905 265.264 189.096V188.368C265.264 187.501 265.004 186.834 264.484 186.366C263.981 185.898 263.227 185.664 262.222 185.664C261.476 185.664 260.766 185.794 260.09 186.054C259.414 186.314 258.703 186.695 257.958 187.198L256.84 184.91C257.741 184.321 258.66 183.879 259.596 183.584C260.549 183.289 261.546 183.142 262.586 183.142C264.527 183.142 266.035 183.627 267.11 184.598C268.202 185.569 268.748 186.955 268.748 188.758V193.1C268.748 193.464 268.808 193.724 268.93 193.88C269.068 194.036 269.285 194.131 269.58 194.166V197C269.268 197.052 268.982 197.095 268.722 197.13C268.479 197.165 268.271 197.182 268.098 197.182C267.404 197.182 266.876 197.026 266.512 196.714C266.165 196.402 265.948 196.021 265.862 195.57L265.784 194.868C265.194 195.631 264.458 196.22 263.574 196.636C262.69 197.052 261.788 197.26 260.87 197.26C259.968 197.26 259.154 197.078 258.426 196.714C257.715 196.333 257.152 195.821 256.736 195.18C256.337 194.521 256.138 193.785 256.138 192.97ZM264.614 193.672C264.804 193.464 264.96 193.256 265.082 193.048C265.203 192.84 265.264 192.649 265.264 192.476V191.098C264.848 190.925 264.397 190.795 263.912 190.708C263.426 190.604 262.967 190.552 262.534 190.552C261.632 190.552 260.887 190.751 260.298 191.15C259.726 191.531 259.44 192.043 259.44 192.684C259.44 193.031 259.535 193.36 259.726 193.672C259.916 193.984 260.194 194.235 260.558 194.426C260.922 194.617 261.355 194.712 261.858 194.712C262.378 194.712 262.889 194.617 263.392 194.426C263.894 194.218 264.302 193.967 264.614 193.672ZM272.887 178.02H276.371V192.632C276.371 193.256 276.475 193.681 276.683 193.906C276.891 194.114 277.177 194.218 277.541 194.218C277.819 194.218 278.105 194.183 278.399 194.114C278.694 194.045 278.954 193.958 279.179 193.854L279.647 196.506C279.179 196.731 278.633 196.905 278.009 197.026C277.385 197.147 276.822 197.208 276.319 197.208C275.227 197.208 274.378 196.922 273.771 196.35C273.182 195.761 272.887 194.929 272.887 193.854V178.02ZM282.075 197V183.376H285.559V197H282.075ZM282.075 181.478V178.02H285.559V181.478H282.075ZM288.78 190.188C288.78 188.871 289.04 187.683 289.56 186.626C290.08 185.551 290.799 184.702 291.718 184.078C292.637 183.454 293.685 183.142 294.864 183.142C295.869 183.142 296.771 183.393 297.568 183.896C298.383 184.381 299.015 185.005 299.466 185.768V178.02H302.95V193.1C302.95 193.464 303.011 193.724 303.132 193.88C303.253 194.036 303.461 194.131 303.756 194.166V197C303.149 197.121 302.655 197.182 302.274 197.182C301.65 197.182 301.13 197.026 300.714 196.714C300.315 196.402 300.09 195.995 300.038 195.492L299.986 194.634C299.483 195.483 298.799 196.133 297.932 196.584C297.083 197.035 296.19 197.26 295.254 197.26C294.318 197.26 293.451 197.078 292.654 196.714C291.874 196.35 291.189 195.847 290.6 195.206C290.028 194.565 289.577 193.819 289.248 192.97C288.936 192.103 288.78 191.176 288.78 190.188ZM299.466 192.008V188.758C299.293 188.255 299.015 187.805 298.634 187.406C298.253 187.007 297.828 186.695 297.36 186.47C296.892 186.227 296.424 186.106 295.956 186.106C295.419 186.106 294.933 186.219 294.5 186.444C294.067 186.669 293.685 186.973 293.356 187.354C293.044 187.735 292.801 188.177 292.628 188.68C292.472 189.183 292.394 189.711 292.394 190.266C292.394 190.821 292.481 191.349 292.654 191.852C292.845 192.337 293.113 192.762 293.46 193.126C293.807 193.49 294.205 193.776 294.656 193.984C295.124 194.192 295.627 194.296 296.164 194.296C296.493 194.296 296.823 194.244 297.152 194.14C297.499 194.019 297.819 193.863 298.114 193.672C298.426 193.464 298.695 193.221 298.92 192.944C299.163 192.649 299.345 192.337 299.466 192.008ZM306.344 192.97C306.344 192.086 306.587 191.315 307.072 190.656C307.575 189.98 308.268 189.46 309.152 189.096C310.036 188.732 311.05 188.55 312.194 188.55C312.766 188.55 313.347 188.593 313.936 188.68C314.525 188.767 315.037 188.905 315.47 189.096V188.368C315.47 187.501 315.21 186.834 314.69 186.366C314.187 185.898 313.433 185.664 312.428 185.664C311.683 185.664 310.972 185.794 310.296 186.054C309.62 186.314 308.909 186.695 308.164 187.198L307.046 184.91C307.947 184.321 308.866 183.879 309.802 183.584C310.755 183.289 311.752 183.142 312.792 183.142C314.733 183.142 316.241 183.627 317.316 184.598C318.408 185.569 318.954 186.955 318.954 188.758V193.1C318.954 193.464 319.015 193.724 319.136 193.88C319.275 194.036 319.491 194.131 319.786 194.166V197C319.474 197.052 319.188 197.095 318.928 197.13C318.685 197.165 318.477 197.182 318.304 197.182C317.611 197.182 317.082 197.026 316.718 196.714C316.371 196.402 316.155 196.021 316.068 195.57L315.99 194.868C315.401 195.631 314.664 196.22 313.78 196.636C312.896 197.052 311.995 197.26 311.076 197.26C310.175 197.26 309.36 197.078 308.632 196.714C307.921 196.333 307.358 195.821 306.942 195.18C306.543 194.521 306.344 193.785 306.344 192.97ZM314.82 193.672C315.011 193.464 315.167 193.256 315.288 193.048C315.409 192.84 315.47 192.649 315.47 192.476V191.098C315.054 190.925 314.603 190.795 314.118 190.708C313.633 190.604 313.173 190.552 312.74 190.552C311.839 190.552 311.093 190.751 310.504 191.15C309.932 191.531 309.646 192.043 309.646 192.684C309.646 193.031 309.741 193.36 309.932 193.672C310.123 193.984 310.4 194.235 310.764 194.426C311.128 194.617 311.561 194.712 312.064 194.712C312.584 194.712 313.095 194.617 313.598 194.426C314.101 194.218 314.508 193.967 314.82 193.672ZM322.288 190.188C322.288 188.871 322.548 187.683 323.068 186.626C323.588 185.551 324.307 184.702 325.226 184.078C326.144 183.454 327.193 183.142 328.372 183.142C329.377 183.142 330.278 183.393 331.076 183.896C331.89 184.381 332.523 185.005 332.974 185.768V178.02H336.458V193.1C336.458 193.464 336.518 193.724 336.64 193.88C336.761 194.036 336.969 194.131 337.264 194.166V197C336.657 197.121 336.163 197.182 335.782 197.182C335.158 197.182 334.638 197.026 334.222 196.714C333.823 196.402 333.598 195.995 333.546 195.492L333.494 194.634C332.991 195.483 332.306 196.133 331.44 196.584C330.59 197.035 329.698 197.26 328.762 197.26C327.826 197.26 326.959 197.078 326.162 196.714C325.382 196.35 324.697 195.847 324.108 195.206C323.536 194.565 323.085 193.819 322.756 192.97C322.444 192.103 322.288 191.176 322.288 190.188ZM332.974 192.008V188.758C332.8 188.255 332.523 187.805 332.142 187.406C331.76 187.007 331.336 186.695 330.868 186.47C330.4 186.227 329.932 186.106 329.464 186.106C328.926 186.106 328.441 186.219 328.008 186.444C327.574 186.669 327.193 186.973 326.864 187.354C326.552 187.735 326.309 188.177 326.136 188.68C325.98 189.183 325.902 189.711 325.902 190.266C325.902 190.821 325.988 191.349 326.162 191.852C326.352 192.337 326.621 192.762 326.968 193.126C327.314 193.49 327.713 193.776 328.164 193.984C328.632 194.192 329.134 194.296 329.672 194.296C330.001 194.296 330.33 194.244 330.66 194.14C331.006 194.019 331.327 193.863 331.622 193.672C331.934 193.464 332.202 193.221 332.428 192.944C332.67 192.649 332.852 192.337 332.974 192.008Z" fill="url(#paint0_radial_1919_325)"/>
<path d="M172.74 217.625H176.506C177.36 217.625 178.081 217.755 178.67 218.016C179.264 218.276 179.714 218.661 180.021 219.172C180.334 219.677 180.49 220.299 180.49 221.039C180.49 221.56 180.383 222.036 180.17 222.469C179.962 222.896 179.66 223.26 179.264 223.562C178.873 223.859 178.404 224.081 177.857 224.227L177.436 224.391H173.896L173.881 223.164H176.553C177.094 223.164 177.545 223.07 177.904 222.883C178.264 222.69 178.535 222.432 178.717 222.109C178.899 221.786 178.99 221.43 178.99 221.039C178.99 220.602 178.904 220.219 178.732 219.891C178.561 219.562 178.29 219.31 177.92 219.133C177.555 218.951 177.084 218.859 176.506 218.859H174.248V229H172.74V217.625ZM179.389 229L176.623 223.844L178.193 223.836L180.998 228.906V229H179.389ZM186.449 229.156C185.86 229.156 185.326 229.057 184.847 228.859C184.373 228.656 183.964 228.372 183.621 228.008C183.282 227.643 183.022 227.211 182.839 226.711C182.657 226.211 182.566 225.664 182.566 225.07V224.742C182.566 224.055 182.667 223.443 182.871 222.906C183.074 222.365 183.35 221.906 183.699 221.531C184.048 221.156 184.443 220.872 184.886 220.68C185.329 220.487 185.787 220.391 186.261 220.391C186.865 220.391 187.386 220.495 187.824 220.703C188.266 220.911 188.628 221.203 188.91 221.578C189.191 221.948 189.399 222.385 189.535 222.891C189.67 223.391 189.738 223.938 189.738 224.531V225.18H183.425V224H188.292V223.891C188.272 223.516 188.193 223.151 188.058 222.797C187.928 222.443 187.72 222.151 187.433 221.922C187.147 221.693 186.756 221.578 186.261 221.578C185.933 221.578 185.631 221.648 185.355 221.789C185.079 221.924 184.842 222.128 184.644 222.398C184.446 222.669 184.292 223 184.183 223.391C184.074 223.781 184.019 224.232 184.019 224.742V225.07C184.019 225.471 184.074 225.849 184.183 226.203C184.298 226.552 184.462 226.859 184.675 227.125C184.894 227.391 185.157 227.599 185.464 227.75C185.777 227.901 186.131 227.977 186.527 227.977C187.037 227.977 187.47 227.872 187.824 227.664C188.178 227.456 188.488 227.177 188.753 226.828L189.628 227.523C189.446 227.799 189.214 228.062 188.933 228.312C188.652 228.562 188.305 228.766 187.894 228.922C187.488 229.078 187.006 229.156 186.449 229.156ZM196.907 226.758C196.907 226.549 196.86 226.357 196.766 226.18C196.678 225.997 196.493 225.833 196.212 225.688C195.936 225.536 195.519 225.406 194.962 225.297C194.493 225.198 194.069 225.081 193.688 224.945C193.313 224.81 192.993 224.646 192.727 224.453C192.467 224.26 192.266 224.034 192.126 223.773C191.985 223.513 191.915 223.208 191.915 222.859C191.915 222.526 191.988 222.211 192.134 221.914C192.285 221.617 192.496 221.354 192.766 221.125C193.043 220.896 193.373 220.716 193.759 220.586C194.144 220.456 194.574 220.391 195.048 220.391C195.725 220.391 196.303 220.51 196.782 220.75C197.261 220.99 197.628 221.31 197.884 221.711C198.139 222.107 198.266 222.547 198.266 223.031H196.821C196.821 222.797 196.751 222.57 196.61 222.352C196.475 222.128 196.274 221.943 196.009 221.797C195.748 221.651 195.428 221.578 195.048 221.578C194.647 221.578 194.321 221.641 194.071 221.766C193.826 221.885 193.647 222.039 193.532 222.227C193.423 222.414 193.368 222.612 193.368 222.82C193.368 222.977 193.394 223.117 193.446 223.242C193.503 223.362 193.602 223.474 193.743 223.578C193.884 223.677 194.082 223.771 194.337 223.859C194.592 223.948 194.918 224.036 195.313 224.125C196.006 224.281 196.576 224.469 197.024 224.688C197.472 224.906 197.806 225.174 198.024 225.492C198.243 225.81 198.352 226.195 198.352 226.648C198.352 227.018 198.274 227.357 198.118 227.664C197.967 227.971 197.746 228.237 197.454 228.461C197.168 228.68 196.824 228.852 196.423 228.977C196.027 229.096 195.582 229.156 195.087 229.156C194.342 229.156 193.712 229.023 193.196 228.758C192.681 228.492 192.29 228.148 192.024 227.727C191.759 227.305 191.626 226.859 191.626 226.391H193.079C193.1 226.786 193.214 227.102 193.423 227.336C193.631 227.565 193.886 227.729 194.188 227.828C194.49 227.922 194.79 227.969 195.087 227.969C195.483 227.969 195.813 227.917 196.079 227.812C196.35 227.708 196.556 227.565 196.696 227.383C196.837 227.201 196.907 226.992 196.907 226.758ZM202.256 222.172V232.25H200.803V220.547H202.131L202.256 222.172ZM207.951 224.703V224.867C207.951 225.482 207.879 226.052 207.733 226.578C207.587 227.099 207.373 227.552 207.092 227.938C206.816 228.323 206.475 228.622 206.069 228.836C205.662 229.049 205.196 229.156 204.67 229.156C204.134 229.156 203.66 229.068 203.248 228.891C202.837 228.714 202.488 228.456 202.201 228.117C201.915 227.779 201.686 227.372 201.514 226.898C201.347 226.424 201.233 225.891 201.17 225.297V224.422C201.233 223.797 201.35 223.237 201.522 222.742C201.694 222.247 201.92 221.826 202.201 221.477C202.488 221.122 202.834 220.854 203.241 220.672C203.647 220.484 204.116 220.391 204.647 220.391C205.178 220.391 205.649 220.495 206.061 220.703C206.472 220.906 206.819 221.198 207.1 221.578C207.381 221.958 207.592 222.414 207.733 222.945C207.879 223.471 207.951 224.057 207.951 224.703ZM206.498 224.867V224.703C206.498 224.281 206.454 223.885 206.366 223.516C206.277 223.141 206.139 222.812 205.951 222.531C205.769 222.245 205.535 222.021 205.248 221.859C204.962 221.693 204.621 221.609 204.225 221.609C203.86 221.609 203.543 221.672 203.272 221.797C203.006 221.922 202.78 222.091 202.592 222.305C202.405 222.513 202.251 222.753 202.131 223.023C202.017 223.289 201.931 223.565 201.873 223.852V225.875C201.978 226.24 202.123 226.583 202.311 226.906C202.498 227.224 202.748 227.482 203.061 227.68C203.373 227.872 203.767 227.969 204.241 227.969C204.631 227.969 204.967 227.888 205.248 227.727C205.535 227.56 205.769 227.333 205.951 227.047C206.139 226.76 206.277 226.432 206.366 226.062C206.454 225.688 206.498 225.289 206.498 224.867ZM213.863 229.156C213.275 229.156 212.741 229.057 212.261 228.859C211.788 228.656 211.379 228.372 211.035 228.008C210.696 227.643 210.436 227.211 210.254 226.711C210.071 226.211 209.98 225.664 209.98 225.07V224.742C209.98 224.055 210.082 223.443 210.285 222.906C210.488 222.365 210.764 221.906 211.113 221.531C211.462 221.156 211.858 220.872 212.301 220.68C212.743 220.487 213.202 220.391 213.676 220.391C214.28 220.391 214.801 220.495 215.238 220.703C215.681 220.911 216.043 221.203 216.324 221.578C216.605 221.948 216.814 222.385 216.949 222.891C217.084 223.391 217.152 223.938 217.152 224.531V225.18H210.84V224H215.707V223.891C215.686 223.516 215.608 223.151 215.472 222.797C215.342 222.443 215.134 222.151 214.847 221.922C214.561 221.693 214.17 221.578 213.676 221.578C213.347 221.578 213.045 221.648 212.769 221.789C212.493 221.924 212.256 222.128 212.058 222.398C211.86 222.669 211.707 223 211.597 223.391C211.488 223.781 211.433 224.232 211.433 224.742V225.07C211.433 225.471 211.488 225.849 211.597 226.203C211.712 226.552 211.876 226.859 212.09 227.125C212.308 227.391 212.571 227.599 212.879 227.75C213.191 227.901 213.545 227.977 213.941 227.977C214.452 227.977 214.884 227.872 215.238 227.664C215.592 227.456 215.902 227.177 216.168 226.828L217.043 227.523C216.86 227.799 216.629 228.062 216.347 228.312C216.066 228.562 215.72 228.766 215.308 228.922C214.902 229.078 214.42 229.156 213.863 229.156ZM222.939 220.547V221.656H218.368V220.547H222.939ZM219.915 218.492H221.361V226.906C221.361 227.193 221.405 227.409 221.493 227.555C221.582 227.701 221.696 227.797 221.837 227.844C221.978 227.891 222.129 227.914 222.29 227.914C222.41 227.914 222.535 227.904 222.665 227.883C222.801 227.857 222.902 227.836 222.97 227.82L222.978 229C222.863 229.036 222.712 229.07 222.525 229.102C222.342 229.138 222.121 229.156 221.861 229.156C221.506 229.156 221.181 229.086 220.884 228.945C220.587 228.805 220.35 228.57 220.173 228.242C220.001 227.909 219.915 227.461 219.915 226.898V218.492ZM230.178 227.555V223.203C230.178 222.87 230.111 222.581 229.975 222.336C229.845 222.086 229.647 221.893 229.381 221.758C229.116 221.622 228.788 221.555 228.397 221.555C228.033 221.555 227.712 221.617 227.436 221.742C227.165 221.867 226.952 222.031 226.796 222.234C226.645 222.438 226.569 222.656 226.569 222.891H225.124C225.124 222.589 225.202 222.289 225.358 221.992C225.514 221.695 225.738 221.427 226.03 221.188C226.327 220.943 226.681 220.75 227.092 220.609C227.509 220.464 227.973 220.391 228.483 220.391C229.098 220.391 229.639 220.495 230.108 220.703C230.582 220.911 230.952 221.227 231.217 221.648C231.488 222.065 231.624 222.589 231.624 223.219V227.156C231.624 227.438 231.647 227.737 231.694 228.055C231.746 228.372 231.822 228.646 231.921 228.875V229H230.413C230.34 228.833 230.283 228.612 230.241 228.336C230.199 228.055 230.178 227.794 230.178 227.555ZM230.428 223.875L230.444 224.891H228.983C228.572 224.891 228.204 224.924 227.881 224.992C227.559 225.055 227.288 225.151 227.069 225.281C226.85 225.411 226.684 225.576 226.569 225.773C226.454 225.966 226.397 226.193 226.397 226.453C226.397 226.719 226.457 226.961 226.577 227.18C226.697 227.398 226.876 227.573 227.116 227.703C227.361 227.828 227.66 227.891 228.014 227.891C228.457 227.891 228.848 227.797 229.186 227.609C229.525 227.422 229.793 227.193 229.991 226.922C230.194 226.651 230.303 226.388 230.319 226.133L230.936 226.828C230.9 227.047 230.801 227.289 230.639 227.555C230.478 227.82 230.262 228.076 229.991 228.32C229.725 228.56 229.408 228.76 229.038 228.922C228.673 229.078 228.262 229.156 227.803 229.156C227.23 229.156 226.728 229.044 226.296 228.82C225.868 228.596 225.535 228.297 225.296 227.922C225.061 227.542 224.944 227.117 224.944 226.648C224.944 226.195 225.033 225.797 225.21 225.453C225.387 225.104 225.642 224.815 225.975 224.586C226.309 224.352 226.71 224.174 227.178 224.055C227.647 223.935 228.171 223.875 228.749 223.875H230.428ZM235.895 222.227V229H234.441V220.547H235.816L235.895 222.227ZM235.598 224.453L234.926 224.43C234.931 223.852 235.007 223.318 235.152 222.828C235.298 222.333 235.514 221.904 235.801 221.539C236.087 221.174 236.444 220.893 236.871 220.695C237.298 220.492 237.793 220.391 238.356 220.391C238.751 220.391 239.116 220.448 239.449 220.562C239.783 220.672 240.072 220.846 240.316 221.086C240.561 221.326 240.751 221.633 240.887 222.008C241.022 222.383 241.09 222.836 241.09 223.367V229H239.645V223.438C239.645 222.995 239.569 222.641 239.418 222.375C239.272 222.109 239.064 221.917 238.793 221.797C238.522 221.672 238.205 221.609 237.84 221.609C237.413 221.609 237.056 221.685 236.77 221.836C236.483 221.987 236.254 222.195 236.082 222.461C235.91 222.727 235.785 223.031 235.707 223.375C235.634 223.714 235.598 224.073 235.598 224.453ZM241.074 223.656L240.106 223.953C240.111 223.49 240.186 223.044 240.332 222.617C240.483 222.19 240.699 221.81 240.981 221.477C241.267 221.143 241.619 220.88 242.035 220.688C242.452 220.49 242.928 220.391 243.465 220.391C243.918 220.391 244.319 220.451 244.668 220.57C245.022 220.69 245.319 220.875 245.559 221.125C245.803 221.37 245.988 221.685 246.113 222.07C246.238 222.456 246.301 222.914 246.301 223.445V229H244.848V223.43C244.848 222.956 244.772 222.589 244.621 222.328C244.475 222.062 244.267 221.878 243.996 221.773C243.731 221.664 243.413 221.609 243.043 221.609C242.725 221.609 242.444 221.664 242.199 221.773C241.955 221.883 241.749 222.034 241.582 222.227C241.415 222.414 241.288 222.63 241.199 222.875C241.116 223.12 241.074 223.38 241.074 223.656ZM248.666 224.867V224.688C248.666 224.078 248.754 223.513 248.931 222.992C249.108 222.466 249.363 222.01 249.697 221.625C250.03 221.234 250.434 220.932 250.908 220.719C251.382 220.5 251.913 220.391 252.501 220.391C253.095 220.391 253.629 220.5 254.103 220.719C254.582 220.932 254.988 221.234 255.322 221.625C255.66 222.01 255.918 222.466 256.095 222.992C256.272 223.513 256.361 224.078 256.361 224.688V224.867C256.361 225.477 256.272 226.042 256.095 226.562C255.918 227.083 255.66 227.539 255.322 227.93C254.988 228.315 254.585 228.617 254.111 228.836C253.642 229.049 253.111 229.156 252.517 229.156C251.923 229.156 251.39 229.049 250.916 228.836C250.442 228.617 250.035 228.315 249.697 227.93C249.363 227.539 249.108 227.083 248.931 226.562C248.754 226.042 248.666 225.477 248.666 224.867ZM250.111 224.688V224.867C250.111 225.289 250.16 225.688 250.259 226.062C250.358 226.432 250.507 226.76 250.705 227.047C250.908 227.333 251.16 227.56 251.462 227.727C251.765 227.888 252.116 227.969 252.517 227.969C252.913 227.969 253.259 227.888 253.556 227.727C253.858 227.56 254.108 227.333 254.306 227.047C254.504 226.76 254.653 226.432 254.751 226.062C254.856 225.688 254.908 225.289 254.908 224.867V224.688C254.908 224.271 254.856 223.878 254.751 223.508C254.653 223.133 254.501 222.802 254.298 222.516C254.1 222.224 253.85 221.995 253.548 221.828C253.251 221.661 252.903 221.578 252.501 221.578C252.106 221.578 251.757 221.661 251.455 221.828C251.158 221.995 250.908 222.224 250.705 222.516C250.507 222.802 250.358 223.133 250.259 223.508C250.16 223.878 250.111 224.271 250.111 224.688ZM263.655 226.758C263.655 226.549 263.608 226.357 263.515 226.18C263.426 225.997 263.241 225.833 262.96 225.688C262.684 225.536 262.267 225.406 261.71 225.297C261.241 225.198 260.817 225.081 260.436 224.945C260.061 224.81 259.741 224.646 259.476 224.453C259.215 224.26 259.015 224.034 258.874 223.773C258.733 223.513 258.663 223.208 258.663 222.859C258.663 222.526 258.736 222.211 258.882 221.914C259.033 221.617 259.244 221.354 259.515 221.125C259.791 220.896 260.121 220.716 260.507 220.586C260.892 220.456 261.322 220.391 261.796 220.391C262.473 220.391 263.051 220.51 263.53 220.75C264.009 220.99 264.377 221.31 264.632 221.711C264.887 222.107 265.015 222.547 265.015 223.031H263.569C263.569 222.797 263.499 222.57 263.358 222.352C263.223 222.128 263.022 221.943 262.757 221.797C262.496 221.651 262.176 221.578 261.796 221.578C261.395 221.578 261.069 221.641 260.819 221.766C260.575 221.885 260.395 222.039 260.28 222.227C260.171 222.414 260.116 222.612 260.116 222.82C260.116 222.977 260.142 223.117 260.194 223.242C260.252 223.362 260.351 223.474 260.491 223.578C260.632 223.677 260.83 223.771 261.085 223.859C261.34 223.948 261.666 224.036 262.061 224.125C262.754 224.281 263.325 224.469 263.772 224.688C264.22 224.906 264.554 225.174 264.772 225.492C264.991 225.81 265.101 226.195 265.101 226.648C265.101 227.018 265.022 227.357 264.866 227.664C264.715 227.971 264.494 228.237 264.202 228.461C263.916 228.68 263.572 228.852 263.171 228.977C262.775 229.096 262.33 229.156 261.835 229.156C261.09 229.156 260.46 229.023 259.944 228.758C259.429 228.492 259.038 228.148 258.772 227.727C258.507 227.305 258.374 226.859 258.374 226.391H259.827C259.848 226.786 259.963 227.102 260.171 227.336C260.379 227.565 260.634 227.729 260.936 227.828C261.239 227.922 261.538 227.969 261.835 227.969C262.231 227.969 262.561 227.917 262.827 227.812C263.098 227.708 263.304 227.565 263.444 227.383C263.585 227.201 263.655 226.992 263.655 226.758ZM273.658 217V229H272.205V217H273.658ZM276.156 224.867V224.688C276.156 224.078 276.244 223.513 276.421 222.992C276.598 222.466 276.853 222.01 277.187 221.625C277.52 221.234 277.924 220.932 278.398 220.719C278.872 220.5 279.403 220.391 279.991 220.391C280.585 220.391 281.119 220.5 281.593 220.719C282.072 220.932 282.478 221.234 282.812 221.625C283.15 222.01 283.408 222.466 283.585 222.992C283.762 223.513 283.851 224.078 283.851 224.688V224.867C283.851 225.477 283.762 226.042 283.585 226.562C283.408 227.083 283.15 227.539 282.812 227.93C282.478 228.315 282.075 228.617 281.601 228.836C281.132 229.049 280.601 229.156 280.007 229.156C279.413 229.156 278.88 229.049 278.406 228.836C277.932 228.617 277.525 228.315 277.187 227.93C276.853 227.539 276.598 227.083 276.421 226.562C276.244 226.042 276.156 225.477 276.156 224.867ZM277.601 224.688V224.867C277.601 225.289 277.65 225.688 277.749 226.062C277.848 226.432 277.997 226.76 278.195 227.047C278.398 227.333 278.65 227.56 278.952 227.727C279.255 227.888 279.606 227.969 280.007 227.969C280.403 227.969 280.749 227.888 281.046 227.727C281.348 227.56 281.598 227.333 281.796 227.047C281.994 226.76 282.143 226.432 282.241 226.062C282.346 225.688 282.398 225.289 282.398 224.867V224.688C282.398 224.271 282.346 223.878 282.241 223.508C282.143 223.133 281.991 222.802 281.788 222.516C281.59 222.224 281.34 221.995 281.038 221.828C280.741 221.661 280.393 221.578 279.991 221.578C279.596 221.578 279.247 221.661 278.945 221.828C278.648 221.995 278.398 222.224 278.195 222.516C277.997 222.802 277.848 223.133 277.749 223.508C277.65 223.878 277.601 224.271 277.601 224.688ZM291.145 226.758C291.145 226.549 291.098 226.357 291.005 226.18C290.916 225.997 290.731 225.833 290.45 225.688C290.174 225.536 289.757 225.406 289.2 225.297C288.731 225.198 288.307 225.081 287.926 224.945C287.551 224.81 287.231 224.646 286.966 224.453C286.705 224.26 286.505 224.034 286.364 223.773C286.223 223.513 286.153 223.208 286.153 222.859C286.153 222.526 286.226 222.211 286.372 221.914C286.523 221.617 286.734 221.354 287.005 221.125C287.281 220.896 287.611 220.716 287.997 220.586C288.382 220.456 288.812 220.391 289.286 220.391C289.963 220.391 290.541 220.51 291.02 220.75C291.499 220.99 291.867 221.31 292.122 221.711C292.377 222.107 292.505 222.547 292.505 223.031H291.059C291.059 222.797 290.989 222.57 290.848 222.352C290.713 222.128 290.512 221.943 290.247 221.797C289.986 221.651 289.666 221.578 289.286 221.578C288.885 221.578 288.559 221.641 288.309 221.766C288.065 221.885 287.885 222.039 287.77 222.227C287.661 222.414 287.606 222.612 287.606 222.82C287.606 222.977 287.632 223.117 287.684 223.242C287.742 223.362 287.841 223.474 287.981 223.578C288.122 223.677 288.32 223.771 288.575 223.859C288.83 223.948 289.156 224.036 289.551 224.125C290.244 224.281 290.815 224.469 291.262 224.688C291.71 224.906 292.044 225.174 292.262 225.492C292.481 225.81 292.591 226.195 292.591 226.648C292.591 227.018 292.512 227.357 292.356 227.664C292.205 227.971 291.984 228.237 291.692 228.461C291.406 228.68 291.062 228.852 290.661 228.977C290.265 229.096 289.82 229.156 289.325 229.156C288.58 229.156 287.95 229.023 287.434 228.758C286.919 228.492 286.528 228.148 286.262 227.727C285.997 227.305 285.864 226.859 285.864 226.391H287.317C287.338 226.786 287.453 227.102 287.661 227.336C287.869 227.565 288.124 227.729 288.426 227.828C288.729 227.922 289.028 227.969 289.325 227.969C289.721 227.969 290.051 227.917 290.317 227.812C290.588 227.708 290.794 227.565 290.934 227.383C291.075 227.201 291.145 226.992 291.145 226.758ZM303.117 220.547V221.656H298.546V220.547H303.117ZM300.093 218.492H301.539V226.906C301.539 227.193 301.583 227.409 301.671 227.555C301.76 227.701 301.875 227.797 302.015 227.844C302.156 227.891 302.307 227.914 302.468 227.914C302.588 227.914 302.713 227.904 302.843 227.883C302.979 227.857 303.08 227.836 303.148 227.82L303.156 229C303.041 229.036 302.89 229.07 302.703 229.102C302.52 229.138 302.299 229.156 302.039 229.156C301.685 229.156 301.359 229.086 301.062 228.945C300.765 228.805 300.528 228.57 300.351 228.242C300.179 227.909 300.093 227.461 300.093 226.898V218.492ZM306.942 220.547V229H305.489V220.547H306.942ZM305.38 218.305C305.38 218.07 305.45 217.872 305.591 217.711C305.737 217.549 305.95 217.469 306.231 217.469C306.508 217.469 306.718 217.549 306.864 217.711C307.015 217.872 307.091 218.07 307.091 218.305C307.091 218.529 307.015 218.721 306.864 218.883C306.718 219.039 306.508 219.117 306.231 219.117C305.95 219.117 305.737 219.039 305.591 218.883C305.45 218.721 305.38 218.529 305.38 218.305ZM313.331 229.156C312.742 229.156 312.208 229.057 311.729 228.859C311.255 228.656 310.846 228.372 310.502 228.008C310.164 227.643 309.903 227.211 309.721 226.711C309.539 226.211 309.448 225.664 309.448 225.07V224.742C309.448 224.055 309.549 223.443 309.752 222.906C309.956 222.365 310.232 221.906 310.581 221.531C310.93 221.156 311.325 220.872 311.768 220.68C312.211 220.487 312.669 220.391 313.143 220.391C313.747 220.391 314.268 220.495 314.706 220.703C315.148 220.911 315.51 221.203 315.791 221.578C316.073 221.948 316.281 222.385 316.416 222.891C316.552 223.391 316.62 223.938 316.62 224.531V225.18H310.307V224H315.174V223.891C315.153 223.516 315.075 223.151 314.94 222.797C314.81 222.443 314.601 222.151 314.315 221.922C314.028 221.693 313.638 221.578 313.143 221.578C312.815 221.578 312.513 221.648 312.237 221.789C311.961 221.924 311.724 222.128 311.526 222.398C311.328 222.669 311.174 223 311.065 223.391C310.956 223.781 310.901 224.232 310.901 224.742V225.07C310.901 225.471 310.956 225.849 311.065 226.203C311.18 226.552 311.344 226.859 311.557 227.125C311.776 227.391 312.039 227.599 312.346 227.75C312.659 227.901 313.013 227.977 313.409 227.977C313.919 227.977 314.351 227.872 314.706 227.664C315.06 227.456 315.37 227.177 315.635 226.828L316.51 227.523C316.328 227.799 316.096 228.062 315.815 228.312C315.534 228.562 315.187 228.766 314.776 228.922C314.37 229.078 313.888 229.156 313.331 229.156ZM320.305 222.227V229H318.851V220.547H320.226L320.305 222.227ZM320.008 224.453L319.336 224.43C319.341 223.852 319.417 223.318 319.562 222.828C319.708 222.333 319.924 221.904 320.211 221.539C320.497 221.174 320.854 220.893 321.281 220.695C321.708 220.492 322.203 220.391 322.766 220.391C323.161 220.391 323.526 220.448 323.859 220.562C324.193 220.672 324.482 220.846 324.726 221.086C324.971 221.326 325.161 221.633 325.297 222.008C325.432 222.383 325.5 222.836 325.5 223.367V229H324.055V223.438C324.055 222.995 323.979 222.641 323.828 222.375C323.682 222.109 323.474 221.917 323.203 221.797C322.932 221.672 322.615 221.609 322.25 221.609C321.823 221.609 321.466 221.685 321.18 221.836C320.893 221.987 320.664 222.195 320.492 222.461C320.32 222.727 320.195 223.031 320.117 223.375C320.044 223.714 320.008 224.073 320.008 224.453ZM325.484 223.656L324.516 223.953C324.521 223.49 324.596 223.044 324.742 222.617C324.893 222.19 325.109 221.81 325.391 221.477C325.677 221.143 326.029 220.88 326.445 220.688C326.862 220.49 327.338 220.391 327.875 220.391C328.328 220.391 328.729 220.451 329.078 220.57C329.432 220.69 329.729 220.875 329.969 221.125C330.213 221.37 330.398 221.685 330.523 222.07C330.648 222.456 330.711 222.914 330.711 223.445V229H329.258V223.43C329.258 222.956 329.182 222.589 329.031 222.328C328.885 222.062 328.677 221.878 328.406 221.773C328.141 221.664 327.823 221.609 327.453 221.609C327.135 221.609 326.854 221.664 326.609 221.773C326.365 221.883 326.159 222.034 325.992 222.227C325.825 222.414 325.698 222.63 325.609 222.875C325.526 223.12 325.484 223.38 325.484 223.656ZM334.904 222.172V232.25H333.451V220.547H334.779L334.904 222.172ZM340.599 224.703V224.867C340.599 225.482 340.526 226.052 340.38 226.578C340.234 227.099 340.021 227.552 339.74 227.938C339.464 228.323 339.122 228.622 338.716 228.836C338.31 229.049 337.844 229.156 337.318 229.156C336.781 229.156 336.307 229.068 335.896 228.891C335.484 228.714 335.135 228.456 334.849 228.117C334.563 227.779 334.333 227.372 334.161 226.898C333.995 226.424 333.88 225.891 333.818 225.297V224.422C333.88 223.797 333.997 223.237 334.169 222.742C334.341 222.247 334.568 221.826 334.849 221.477C335.135 221.122 335.482 220.854 335.888 220.672C336.294 220.484 336.763 220.391 337.294 220.391C337.826 220.391 338.297 220.495 338.708 220.703C339.12 220.906 339.466 221.198 339.747 221.578C340.029 221.958 340.24 222.414 340.38 222.945C340.526 223.471 340.599 224.057 340.599 224.703ZM339.146 224.867V224.703C339.146 224.281 339.102 223.885 339.013 223.516C338.925 223.141 338.786 222.812 338.599 222.531C338.417 222.245 338.182 222.021 337.896 221.859C337.609 221.693 337.268 221.609 336.872 221.609C336.508 221.609 336.19 221.672 335.919 221.797C335.654 221.922 335.427 222.091 335.24 222.305C335.052 222.513 334.898 222.753 334.779 223.023C334.664 223.289 334.578 223.565 334.521 223.852V225.875C334.625 226.24 334.771 226.583 334.958 226.906C335.146 227.224 335.396 227.482 335.708 227.68C336.021 227.872 336.414 227.969 336.888 227.969C337.279 227.969 337.615 227.888 337.896 227.727C338.182 227.56 338.417 227.333 338.599 227.047C338.786 226.76 338.925 226.432 339.013 226.062C339.102 225.688 339.146 225.289 339.146 224.867ZM342.62 224.867V224.688C342.62 224.078 342.708 223.513 342.886 222.992C343.063 222.466 343.318 222.01 343.651 221.625C343.985 221.234 344.388 220.932 344.862 220.719C345.336 220.5 345.867 220.391 346.456 220.391C347.05 220.391 347.583 220.5 348.057 220.719C348.537 220.932 348.943 221.234 349.276 221.625C349.615 222.01 349.873 222.466 350.05 222.992C350.227 223.513 350.315 224.078 350.315 224.688V224.867C350.315 225.477 350.227 226.042 350.05 226.562C349.873 227.083 349.615 227.539 349.276 227.93C348.943 228.315 348.539 228.617 348.065 228.836C347.596 229.049 347.065 229.156 346.471 229.156C345.878 229.156 345.344 229.049 344.87 228.836C344.396 228.617 343.99 228.315 343.651 227.93C343.318 227.539 343.063 227.083 342.886 226.562C342.708 226.042 342.62 225.477 342.62 224.867ZM344.065 224.688V224.867C344.065 225.289 344.115 225.688 344.214 226.062C344.313 226.432 344.461 226.76 344.659 227.047C344.862 227.333 345.115 227.56 345.417 227.727C345.719 227.888 346.07 227.969 346.471 227.969C346.867 227.969 347.214 227.888 347.511 227.727C347.813 227.56 348.063 227.333 348.261 227.047C348.458 226.76 348.607 226.432 348.706 226.062C348.81 225.688 348.862 225.289 348.862 224.867V224.688C348.862 224.271 348.81 223.878 348.706 223.508C348.607 223.133 348.456 222.802 348.253 222.516C348.055 222.224 347.805 221.995 347.503 221.828C347.206 221.661 346.857 221.578 346.456 221.578C346.06 221.578 345.711 221.661 345.409 221.828C345.112 221.995 344.862 222.224 344.659 222.516C344.461 222.802 344.313 223.133 344.214 223.508C344.115 223.878 344.065 224.271 344.065 224.688ZM357.61 226.758C357.61 226.549 357.563 226.357 357.469 226.18C357.38 225.997 357.196 225.833 356.914 225.688C356.638 225.536 356.222 225.406 355.664 225.297C355.196 225.198 354.771 225.081 354.391 224.945C354.016 224.81 353.696 224.646 353.43 224.453C353.169 224.26 352.969 224.034 352.828 223.773C352.688 223.513 352.617 223.208 352.617 222.859C352.617 222.526 352.69 222.211 352.836 221.914C352.987 221.617 353.198 221.354 353.469 221.125C353.745 220.896 354.076 220.716 354.461 220.586C354.847 220.456 355.276 220.391 355.75 220.391C356.427 220.391 357.005 220.51 357.485 220.75C357.964 220.99 358.331 221.31 358.586 221.711C358.841 222.107 358.969 222.547 358.969 223.031H357.524C357.524 222.797 357.453 222.57 357.313 222.352C357.177 222.128 356.977 221.943 356.711 221.797C356.451 221.651 356.13 221.578 355.75 221.578C355.349 221.578 355.024 221.641 354.774 221.766C354.529 221.885 354.349 222.039 354.235 222.227C354.125 222.414 354.071 222.612 354.071 222.82C354.071 222.977 354.097 223.117 354.149 223.242C354.206 223.362 354.305 223.474 354.446 223.578C354.586 223.677 354.784 223.771 355.039 223.859C355.294 223.948 355.62 224.036 356.016 224.125C356.709 224.281 357.279 224.469 357.727 224.688C358.175 224.906 358.508 225.174 358.727 225.492C358.946 225.81 359.055 226.195 359.055 226.648C359.055 227.018 358.977 227.357 358.821 227.664C358.669 227.971 358.448 228.237 358.156 228.461C357.87 228.68 357.526 228.852 357.125 228.977C356.729 229.096 356.284 229.156 355.789 229.156C355.044 229.156 354.414 229.023 353.899 228.758C353.383 228.492 352.992 228.148 352.727 227.727C352.461 227.305 352.328 226.859 352.328 226.391H353.781C353.802 226.786 353.917 227.102 354.125 227.336C354.334 227.565 354.589 227.729 354.891 227.828C355.193 227.922 355.492 227.969 355.789 227.969C356.185 227.969 356.516 227.917 356.781 227.812C357.052 227.708 357.258 227.565 357.399 227.383C357.539 227.201 357.61 226.992 357.61 226.758ZM177.506 249.555V245.203C177.506 244.87 177.438 244.581 177.303 244.336C177.173 244.086 176.975 243.893 176.709 243.758C176.443 243.622 176.115 243.555 175.725 243.555C175.36 243.555 175.04 243.617 174.764 243.742C174.493 243.867 174.279 244.031 174.123 244.234C173.972 244.438 173.896 244.656 173.896 244.891H172.451C172.451 244.589 172.529 244.289 172.686 243.992C172.842 243.695 173.066 243.427 173.357 243.188C173.654 242.943 174.008 242.75 174.42 242.609C174.837 242.464 175.3 242.391 175.811 242.391C176.425 242.391 176.967 242.495 177.436 242.703C177.91 242.911 178.279 243.227 178.545 243.648C178.816 244.065 178.951 244.589 178.951 245.219V249.156C178.951 249.438 178.975 249.737 179.021 250.055C179.074 250.372 179.149 250.646 179.248 250.875V251H177.74C177.667 250.833 177.61 250.612 177.568 250.336C177.527 250.055 177.506 249.794 177.506 249.555ZM177.756 245.875L177.771 246.891H176.311C175.899 246.891 175.532 246.924 175.209 246.992C174.886 247.055 174.615 247.151 174.396 247.281C174.178 247.411 174.011 247.576 173.896 247.773C173.782 247.966 173.725 248.193 173.725 248.453C173.725 248.719 173.785 248.961 173.904 249.18C174.024 249.398 174.204 249.573 174.443 249.703C174.688 249.828 174.988 249.891 175.342 249.891C175.785 249.891 176.175 249.797 176.514 249.609C176.852 249.422 177.12 249.193 177.318 248.922C177.521 248.651 177.631 248.388 177.646 248.133L178.264 248.828C178.227 249.047 178.128 249.289 177.967 249.555C177.805 249.82 177.589 250.076 177.318 250.32C177.053 250.56 176.735 250.76 176.365 250.922C176.001 251.078 175.589 251.156 175.131 251.156C174.558 251.156 174.055 251.044 173.623 250.82C173.196 250.596 172.863 250.297 172.623 249.922C172.389 249.542 172.271 249.117 172.271 248.648C172.271 248.195 172.36 247.797 172.537 247.453C172.714 247.104 172.969 246.815 173.303 246.586C173.636 246.352 174.037 246.174 174.506 246.055C174.975 245.935 175.498 245.875 176.076 245.875H177.756ZM185.167 249.969C185.511 249.969 185.829 249.898 186.121 249.758C186.412 249.617 186.652 249.424 186.839 249.18C187.027 248.93 187.134 248.646 187.16 248.328H188.535C188.509 248.828 188.339 249.294 188.027 249.727C187.72 250.154 187.316 250.5 186.816 250.766C186.316 251.026 185.766 251.156 185.167 251.156C184.532 251.156 183.977 251.044 183.503 250.82C183.035 250.596 182.644 250.289 182.331 249.898C182.024 249.508 181.792 249.06 181.636 248.555C181.485 248.044 181.41 247.505 181.41 246.938V246.609C181.41 246.042 181.485 245.505 181.636 245C181.792 244.49 182.024 244.039 182.331 243.648C182.644 243.258 183.035 242.951 183.503 242.727C183.977 242.503 184.532 242.391 185.167 242.391C185.829 242.391 186.407 242.526 186.902 242.797C187.397 243.062 187.785 243.427 188.066 243.891C188.352 244.349 188.509 244.87 188.535 245.453H187.16C187.134 245.104 187.035 244.789 186.863 244.508C186.696 244.227 186.467 244.003 186.175 243.836C185.889 243.664 185.553 243.578 185.167 243.578C184.725 243.578 184.352 243.667 184.05 243.844C183.753 244.016 183.516 244.25 183.339 244.547C183.167 244.839 183.042 245.164 182.964 245.523C182.891 245.878 182.855 246.24 182.855 246.609V246.938C182.855 247.307 182.891 247.672 182.964 248.031C183.037 248.391 183.16 248.716 183.331 249.008C183.509 249.299 183.746 249.534 184.042 249.711C184.345 249.883 184.72 249.969 185.167 249.969ZM190.337 246.867V246.688C190.337 246.078 190.425 245.513 190.602 244.992C190.78 244.466 191.035 244.01 191.368 243.625C191.701 243.234 192.105 242.932 192.579 242.719C193.053 242.5 193.584 242.391 194.173 242.391C194.766 242.391 195.3 242.5 195.774 242.719C196.253 242.932 196.66 243.234 196.993 243.625C197.332 244.01 197.589 244.466 197.766 244.992C197.944 245.513 198.032 246.078 198.032 246.688V246.867C198.032 247.477 197.944 248.042 197.766 248.562C197.589 249.083 197.332 249.539 196.993 249.93C196.66 250.315 196.256 250.617 195.782 250.836C195.313 251.049 194.782 251.156 194.188 251.156C193.595 251.156 193.061 251.049 192.587 250.836C192.113 250.617 191.707 250.315 191.368 249.93C191.035 249.539 190.78 249.083 190.602 248.562C190.425 248.042 190.337 247.477 190.337 246.867ZM191.782 246.688V246.867C191.782 247.289 191.832 247.688 191.931 248.062C192.03 248.432 192.178 248.76 192.376 249.047C192.579 249.333 192.832 249.56 193.134 249.727C193.436 249.888 193.787 249.969 194.188 249.969C194.584 249.969 194.931 249.888 195.227 249.727C195.53 249.56 195.78 249.333 195.977 249.047C196.175 248.76 196.324 248.432 196.423 248.062C196.527 247.688 196.579 247.289 196.579 246.867V246.688C196.579 246.271 196.527 245.878 196.423 245.508C196.324 245.133 196.173 244.802 195.97 244.516C195.772 244.224 195.522 243.995 195.22 243.828C194.923 243.661 194.574 243.578 194.173 243.578C193.777 243.578 193.428 243.661 193.126 243.828C192.829 243.995 192.579 244.224 192.376 244.516C192.178 244.802 192.03 245.133 191.931 245.508C191.832 245.878 191.782 246.271 191.782 246.688ZM201.85 243.875V251H200.405V242.547H201.811L201.85 243.875ZM204.491 242.5L204.483 243.844C204.363 243.818 204.248 243.802 204.139 243.797C204.035 243.786 203.915 243.781 203.78 243.781C203.446 243.781 203.152 243.833 202.897 243.938C202.642 244.042 202.425 244.188 202.248 244.375C202.071 244.562 201.931 244.786 201.826 245.047C201.728 245.302 201.662 245.583 201.631 245.891L201.225 246.125C201.225 245.615 201.274 245.135 201.373 244.688C201.478 244.24 201.636 243.844 201.85 243.5C202.063 243.151 202.334 242.88 202.662 242.688C202.996 242.49 203.392 242.391 203.85 242.391C203.954 242.391 204.074 242.404 204.209 242.43C204.345 242.451 204.438 242.474 204.491 242.5ZM211.558 249.359V239H213.011V251H211.683L211.558 249.359ZM205.871 246.867V246.703C205.871 246.057 205.949 245.471 206.105 244.945C206.267 244.414 206.493 243.958 206.785 243.578C207.082 243.198 207.433 242.906 207.84 242.703C208.251 242.495 208.709 242.391 209.215 242.391C209.746 242.391 210.209 242.484 210.605 242.672C211.006 242.854 211.345 243.122 211.621 243.477C211.902 243.826 212.123 244.247 212.285 244.742C212.446 245.237 212.558 245.797 212.621 246.422V247.141C212.564 247.76 212.452 248.318 212.285 248.812C212.123 249.307 211.902 249.729 211.621 250.078C211.345 250.427 211.006 250.695 210.605 250.883C210.204 251.065 209.735 251.156 209.199 251.156C208.704 251.156 208.251 251.049 207.84 250.836C207.433 250.622 207.082 250.323 206.785 249.938C206.493 249.552 206.267 249.099 206.105 248.578C205.949 248.052 205.871 247.482 205.871 246.867ZM207.324 246.703V246.867C207.324 247.289 207.366 247.685 207.449 248.055C207.538 248.424 207.673 248.75 207.855 249.031C208.038 249.312 208.269 249.534 208.551 249.695C208.832 249.852 209.168 249.93 209.558 249.93C210.038 249.93 210.431 249.828 210.738 249.625C211.051 249.422 211.301 249.154 211.488 248.82C211.676 248.487 211.821 248.125 211.926 247.734V245.852C211.863 245.565 211.772 245.289 211.652 245.023C211.538 244.753 211.386 244.513 211.199 244.305C211.017 244.091 210.79 243.922 210.519 243.797C210.254 243.672 209.939 243.609 209.574 243.609C209.178 243.609 208.837 243.693 208.551 243.859C208.269 244.021 208.038 244.245 207.855 244.531C207.673 244.812 207.538 245.141 207.449 245.516C207.366 245.885 207.324 246.281 207.324 246.703ZM220.806 249.555V245.203C220.806 244.87 220.738 244.581 220.603 244.336C220.473 244.086 220.275 243.893 220.009 243.758C219.743 243.622 219.415 243.555 219.025 243.555C218.66 243.555 218.34 243.617 218.064 243.742C217.793 243.867 217.579 244.031 217.423 244.234C217.272 244.438 217.196 244.656 217.196 244.891H215.751C215.751 244.589 215.829 244.289 215.986 243.992C216.142 243.695 216.366 243.427 216.657 243.188C216.954 242.943 217.308 242.75 217.72 242.609C218.137 242.464 218.6 242.391 219.111 242.391C219.725 242.391 220.267 242.495 220.736 242.703C221.21 242.911 221.579 243.227 221.845 243.648C222.116 244.065 222.251 244.589 222.251 245.219V249.156C222.251 249.438 222.275 249.737 222.321 250.055C222.374 250.372 222.449 250.646 222.548 250.875V251H221.04C220.967 250.833 220.91 250.612 220.868 250.336C220.827 250.055 220.806 249.794 220.806 249.555ZM221.056 245.875L221.071 246.891H219.611C219.199 246.891 218.832 246.924 218.509 246.992C218.186 247.055 217.915 247.151 217.696 247.281C217.478 247.411 217.311 247.576 217.196 247.773C217.082 247.966 217.025 248.193 217.025 248.453C217.025 248.719 217.085 248.961 217.204 249.18C217.324 249.398 217.504 249.573 217.743 249.703C217.988 249.828 218.288 249.891 218.642 249.891C219.085 249.891 219.475 249.797 219.814 249.609C220.152 249.422 220.42 249.193 220.618 248.922C220.821 248.651 220.931 248.388 220.946 248.133L221.564 248.828C221.527 249.047 221.428 249.289 221.267 249.555C221.105 249.82 220.889 250.076 220.618 250.32C220.353 250.56 220.035 250.76 219.665 250.922C219.301 251.078 218.889 251.156 218.431 251.156C217.858 251.156 217.355 251.044 216.923 250.82C216.496 250.596 216.163 250.297 215.923 249.922C215.689 249.542 215.571 249.117 215.571 248.648C215.571 248.195 215.66 247.797 215.837 247.453C216.014 247.104 216.269 246.815 216.603 246.586C216.936 246.352 217.337 246.174 217.806 246.055C218.275 245.935 218.798 245.875 219.376 245.875H221.056ZM230.413 249.359V239H231.866V251H230.538L230.413 249.359ZM224.725 246.867V246.703C224.725 246.057 224.803 245.471 224.96 244.945C225.121 244.414 225.348 243.958 225.639 243.578C225.936 243.198 226.288 242.906 226.694 242.703C227.105 242.495 227.564 242.391 228.069 242.391C228.6 242.391 229.064 242.484 229.46 242.672C229.861 242.854 230.199 243.122 230.475 243.477C230.756 243.826 230.978 244.247 231.139 244.742C231.301 245.237 231.413 245.797 231.475 246.422V247.141C231.418 247.76 231.306 248.318 231.139 248.812C230.978 249.307 230.756 249.729 230.475 250.078C230.199 250.427 229.861 250.695 229.46 250.883C229.059 251.065 228.59 251.156 228.053 251.156C227.559 251.156 227.105 251.049 226.694 250.836C226.288 250.622 225.936 250.323 225.639 249.938C225.348 249.552 225.121 249.099 224.96 248.578C224.803 248.052 224.725 247.482 224.725 246.867ZM226.178 246.703V246.867C226.178 247.289 226.22 247.685 226.303 248.055C226.392 248.424 226.527 248.75 226.71 249.031C226.892 249.312 227.124 249.534 227.405 249.695C227.686 249.852 228.022 249.93 228.413 249.93C228.892 249.93 229.285 249.828 229.592 249.625C229.905 249.422 230.155 249.154 230.342 248.82C230.53 248.487 230.676 248.125 230.78 247.734V245.852C230.717 245.565 230.626 245.289 230.506 245.023C230.392 244.753 230.241 244.513 230.053 244.305C229.871 244.091 229.645 243.922 229.374 243.797C229.108 243.672 228.793 243.609 228.428 243.609C228.033 243.609 227.691 243.693 227.405 243.859C227.124 244.021 226.892 244.245 226.71 244.531C226.527 244.812 226.392 245.141 226.303 245.516C226.22 245.885 226.178 246.281 226.178 246.703ZM234.293 246.867V246.688C234.293 246.078 234.382 245.513 234.559 244.992C234.736 244.466 234.991 244.01 235.324 243.625C235.658 243.234 236.061 242.932 236.535 242.719C237.009 242.5 237.54 242.391 238.129 242.391C238.723 242.391 239.257 242.5 239.731 242.719C240.21 242.932 240.616 243.234 240.949 243.625C241.288 244.01 241.546 244.466 241.723 244.992C241.9 245.513 241.988 246.078 241.988 246.688V246.867C241.988 247.477 241.9 248.042 241.723 248.562C241.546 249.083 241.288 249.539 240.949 249.93C240.616 250.315 240.212 250.617 239.738 250.836C239.27 251.049 238.738 251.156 238.145 251.156C237.551 251.156 237.017 251.049 236.543 250.836C236.069 250.617 235.663 250.315 235.324 249.93C234.991 249.539 234.736 249.083 234.559 248.562C234.382 248.042 234.293 247.477 234.293 246.867ZM235.738 246.688V246.867C235.738 247.289 235.788 247.688 235.887 248.062C235.986 248.432 236.134 248.76 236.332 249.047C236.535 249.333 236.788 249.56 237.09 249.727C237.392 249.888 237.744 249.969 238.145 249.969C238.54 249.969 238.887 249.888 239.184 249.727C239.486 249.56 239.736 249.333 239.934 249.047C240.132 248.76 240.28 248.432 240.379 248.062C240.483 247.688 240.535 247.289 240.535 246.867V246.688C240.535 246.271 240.483 245.878 240.379 245.508C240.28 245.133 240.129 244.802 239.926 244.516C239.728 244.224 239.478 243.995 239.176 243.828C238.879 243.661 238.53 243.578 238.129 243.578C237.733 243.578 237.384 243.661 237.082 243.828C236.785 243.995 236.535 244.224 236.332 244.516C236.134 244.802 235.986 245.133 235.887 245.508C235.788 245.878 235.738 246.271 235.738 246.688ZM249.283 248.758C249.283 248.549 249.236 248.357 249.142 248.18C249.054 247.997 248.869 247.833 248.587 247.688C248.311 247.536 247.895 247.406 247.337 247.297C246.869 247.198 246.444 247.081 246.064 246.945C245.689 246.81 245.369 246.646 245.103 246.453C244.843 246.26 244.642 246.034 244.501 245.773C244.361 245.513 244.291 245.208 244.291 244.859C244.291 244.526 244.363 244.211 244.509 243.914C244.66 243.617 244.871 243.354 245.142 243.125C245.418 242.896 245.749 242.716 246.134 242.586C246.52 242.456 246.949 242.391 247.423 242.391C248.1 242.391 248.679 242.51 249.158 242.75C249.637 242.99 250.004 243.31 250.259 243.711C250.515 244.107 250.642 244.547 250.642 245.031H249.197C249.197 244.797 249.126 244.57 248.986 244.352C248.85 244.128 248.65 243.943 248.384 243.797C248.124 243.651 247.804 243.578 247.423 243.578C247.022 243.578 246.697 243.641 246.447 243.766C246.202 243.885 246.022 244.039 245.908 244.227C245.798 244.414 245.744 244.612 245.744 244.82C245.744 244.977 245.77 245.117 245.822 245.242C245.879 245.362 245.978 245.474 246.119 245.578C246.259 245.677 246.457 245.771 246.712 245.859C246.968 245.948 247.293 246.036 247.689 246.125C248.382 246.281 248.952 246.469 249.4 246.688C249.848 246.906 250.181 247.174 250.4 247.492C250.619 247.81 250.728 248.195 250.728 248.648C250.728 249.018 250.65 249.357 250.494 249.664C250.343 249.971 250.121 250.237 249.83 250.461C249.543 250.68 249.199 250.852 248.798 250.977C248.403 251.096 247.957 251.156 247.462 251.156C246.718 251.156 246.087 251.023 245.572 250.758C245.056 250.492 244.666 250.148 244.4 249.727C244.134 249.305 244.001 248.859 244.001 248.391H245.455C245.475 248.786 245.59 249.102 245.798 249.336C246.007 249.565 246.262 249.729 246.564 249.828C246.866 249.922 247.166 249.969 247.462 249.969C247.858 249.969 248.189 249.917 248.455 249.812C248.725 249.708 248.931 249.565 249.072 249.383C249.212 249.201 249.283 248.992 249.283 248.758ZM259.161 244.172V254.25H257.707V242.547H259.036L259.161 244.172ZM264.856 246.703V246.867C264.856 247.482 264.783 248.052 264.637 248.578C264.491 249.099 264.278 249.552 263.996 249.938C263.72 250.323 263.379 250.622 262.973 250.836C262.567 251.049 262.101 251.156 261.575 251.156C261.038 251.156 260.564 251.068 260.153 250.891C259.741 250.714 259.392 250.456 259.106 250.117C258.819 249.779 258.59 249.372 258.418 248.898C258.252 248.424 258.137 247.891 258.075 247.297V246.422C258.137 245.797 258.254 245.237 258.426 244.742C258.598 244.247 258.825 243.826 259.106 243.477C259.392 243.122 259.739 242.854 260.145 242.672C260.551 242.484 261.02 242.391 261.551 242.391C262.082 242.391 262.554 242.495 262.965 242.703C263.377 242.906 263.723 243.198 264.004 243.578C264.286 243.958 264.496 244.414 264.637 244.945C264.783 245.471 264.856 246.057 264.856 246.703ZM263.403 246.867V246.703C263.403 246.281 263.358 245.885 263.27 245.516C263.181 245.141 263.043 244.812 262.856 244.531C262.674 244.245 262.439 244.021 262.153 243.859C261.866 243.693 261.525 243.609 261.129 243.609C260.765 243.609 260.447 243.672 260.176 243.797C259.911 243.922 259.684 244.091 259.496 244.305C259.309 244.513 259.155 244.753 259.036 245.023C258.921 245.289 258.835 245.565 258.778 245.852V247.875C258.882 248.24 259.028 248.583 259.215 248.906C259.403 249.224 259.653 249.482 259.965 249.68C260.278 249.872 260.671 249.969 261.145 249.969C261.536 249.969 261.871 249.888 262.153 249.727C262.439 249.56 262.674 249.333 262.856 249.047C263.043 248.76 263.181 248.432 263.27 248.062C263.358 247.688 263.403 247.289 263.403 246.867ZM272.244 249.555V245.203C272.244 244.87 272.176 244.581 272.041 244.336C271.911 244.086 271.713 243.893 271.447 243.758C271.181 243.622 270.853 243.555 270.463 243.555C270.098 243.555 269.778 243.617 269.502 243.742C269.231 243.867 269.017 244.031 268.861 244.234C268.71 244.438 268.635 244.656 268.635 244.891H267.189C267.189 244.589 267.267 244.289 267.424 243.992C267.58 243.695 267.804 243.427 268.096 243.188C268.392 242.943 268.747 242.75 269.158 242.609C269.575 242.464 270.038 242.391 270.549 242.391C271.163 242.391 271.705 242.495 272.174 242.703C272.648 242.911 273.017 243.227 273.283 243.648C273.554 244.065 273.689 244.589 273.689 245.219V249.156C273.689 249.438 273.713 249.737 273.76 250.055C273.812 250.372 273.887 250.646 273.986 250.875V251H272.478C272.405 250.833 272.348 250.612 272.306 250.336C272.265 250.055 272.244 249.794 272.244 249.555ZM272.494 245.875L272.51 246.891H271.049C270.637 246.891 270.27 246.924 269.947 246.992C269.624 247.055 269.353 247.151 269.135 247.281C268.916 247.411 268.749 247.576 268.635 247.773C268.52 247.966 268.463 248.193 268.463 248.453C268.463 248.719 268.523 248.961 268.642 249.18C268.762 249.398 268.942 249.573 269.181 249.703C269.426 249.828 269.726 249.891 270.08 249.891C270.523 249.891 270.913 249.797 271.252 249.609C271.59 249.422 271.859 249.193 272.056 248.922C272.26 248.651 272.369 248.388 272.385 248.133L273.002 248.828C272.965 249.047 272.866 249.289 272.705 249.555C272.543 249.82 272.327 250.076 272.056 250.32C271.791 250.56 271.473 250.76 271.103 250.922C270.739 251.078 270.327 251.156 269.869 251.156C269.296 251.156 268.793 251.044 268.361 250.82C267.934 250.596 267.601 250.297 267.361 249.922C267.127 249.542 267.01 249.117 267.01 248.648C267.01 248.195 267.098 247.797 267.275 247.453C267.452 247.104 267.708 246.815 268.041 246.586C268.374 246.352 268.775 246.174 269.244 246.055C269.713 245.935 270.236 245.875 270.814 245.875H272.494ZM277.968 243.875V251H276.523V242.547H277.929L277.968 243.875ZM280.609 242.5L280.601 243.844C280.481 243.818 280.366 243.802 280.257 243.797C280.153 243.786 280.033 243.781 279.898 243.781C279.564 243.781 279.27 243.833 279.015 243.938C278.76 244.042 278.544 244.188 278.366 244.375C278.189 244.562 278.049 244.786 277.945 245.047C277.846 245.302 277.781 245.583 277.749 245.891L277.343 246.125C277.343 245.615 277.393 245.135 277.491 244.688C277.596 244.24 277.755 243.844 277.968 243.5C278.182 243.151 278.452 242.88 278.781 242.688C279.114 242.49 279.51 242.391 279.968 242.391C280.072 242.391 280.192 242.404 280.327 242.43C280.463 242.451 280.557 242.474 280.609 242.5ZM287.176 249.555V245.203C287.176 244.87 287.109 244.581 286.973 244.336C286.843 244.086 286.645 243.893 286.38 243.758C286.114 243.622 285.786 243.555 285.395 243.555C285.031 243.555 284.71 243.617 284.434 243.742C284.163 243.867 283.95 244.031 283.794 244.234C283.643 244.438 283.567 244.656 283.567 244.891H282.122C282.122 244.589 282.2 244.289 282.356 243.992C282.512 243.695 282.736 243.427 283.028 243.188C283.325 242.943 283.679 242.75 284.091 242.609C284.507 242.464 284.971 242.391 285.481 242.391C286.096 242.391 286.637 242.495 287.106 242.703C287.58 242.911 287.95 243.227 288.216 243.648C288.486 244.065 288.622 244.589 288.622 245.219V249.156C288.622 249.438 288.645 249.737 288.692 250.055C288.744 250.372 288.82 250.646 288.919 250.875V251H287.411C287.338 250.833 287.281 250.612 287.239 250.336C287.197 250.055 287.176 249.794 287.176 249.555ZM287.426 245.875L287.442 246.891H285.981C285.57 246.891 285.203 246.924 284.88 246.992C284.557 247.055 284.286 247.151 284.067 247.281C283.848 247.411 283.682 247.576 283.567 247.773C283.453 247.966 283.395 248.193 283.395 248.453C283.395 248.719 283.455 248.961 283.575 249.18C283.695 249.398 283.874 249.573 284.114 249.703C284.359 249.828 284.658 249.891 285.012 249.891C285.455 249.891 285.846 249.797 286.184 249.609C286.523 249.422 286.791 249.193 286.989 248.922C287.192 248.651 287.301 248.388 287.317 248.133L287.934 248.828C287.898 249.047 287.799 249.289 287.637 249.555C287.476 249.82 287.26 250.076 286.989 250.32C286.723 250.56 286.406 250.76 286.036 250.922C285.671 251.078 285.26 251.156 284.801 251.156C284.229 251.156 283.726 251.044 283.294 250.82C282.867 250.596 282.533 250.297 282.294 249.922C282.059 249.542 281.942 249.117 281.942 248.648C281.942 248.195 282.031 247.797 282.208 247.453C282.385 247.104 282.64 246.815 282.973 246.586C283.307 246.352 283.708 246.174 284.176 246.055C284.645 245.935 285.169 245.875 285.747 245.875H287.426ZM295.601 246.867V246.688C295.601 246.078 295.69 245.513 295.867 244.992C296.044 244.466 296.299 244.01 296.632 243.625C296.966 243.234 297.369 242.932 297.843 242.719C298.317 242.5 298.849 242.391 299.437 242.391C300.031 242.391 300.565 242.5 301.039 242.719C301.518 242.932 301.924 243.234 302.257 243.625C302.596 244.01 302.854 244.466 303.031 244.992C303.208 245.513 303.296 246.078 303.296 246.688V246.867C303.296 247.477 303.208 248.042 303.031 248.562C302.854 249.083 302.596 249.539 302.257 249.93C301.924 250.315 301.52 250.617 301.046 250.836C300.578 251.049 300.046 251.156 299.453 251.156C298.859 251.156 298.325 251.049 297.851 250.836C297.377 250.617 296.971 250.315 296.632 249.93C296.299 249.539 296.044 249.083 295.867 248.562C295.69 248.042 295.601 247.477 295.601 246.867ZM297.046 246.688V246.867C297.046 247.289 297.096 247.688 297.195 248.062C297.294 248.432 297.442 248.76 297.64 249.047C297.843 249.333 298.096 249.56 298.398 249.727C298.7 249.888 299.052 249.969 299.453 249.969C299.849 249.969 300.195 249.888 300.492 249.727C300.794 249.56 301.044 249.333 301.242 249.047C301.44 248.76 301.588 248.432 301.687 248.062C301.791 247.688 301.843 247.289 301.843 246.867V246.688C301.843 246.271 301.791 245.878 301.687 245.508C301.588 245.133 301.437 244.802 301.234 244.516C301.036 244.224 300.786 243.995 300.484 243.828C300.187 243.661 299.838 243.578 299.437 243.578C299.041 243.578 298.692 243.661 298.39 243.828C298.093 243.995 297.843 244.224 297.64 244.516C297.442 244.802 297.294 245.133 297.195 245.508C297.096 245.878 297.046 246.271 297.046 246.688ZM307.825 251H306.38V241.656C306.38 241.047 306.489 240.534 306.708 240.117C306.932 239.695 307.252 239.378 307.669 239.164C308.086 238.945 308.58 238.836 309.153 238.836C309.32 238.836 309.487 238.846 309.653 238.867C309.825 238.888 309.992 238.919 310.153 238.961L310.075 240.141C309.966 240.115 309.841 240.096 309.7 240.086C309.565 240.076 309.429 240.07 309.294 240.07C308.987 240.07 308.721 240.133 308.497 240.258C308.278 240.378 308.112 240.555 307.997 240.789C307.883 241.023 307.825 241.312 307.825 241.656V251ZM309.622 242.547V243.656H305.044V242.547H309.622ZM313.237 243.875V251H311.791V242.547H313.198L313.237 243.875ZM315.877 242.5L315.87 243.844C315.75 243.818 315.635 243.802 315.526 243.797C315.422 243.786 315.302 243.781 315.166 243.781C314.833 243.781 314.539 243.833 314.284 243.938C314.028 244.042 313.812 244.188 313.635 244.375C313.458 244.562 313.318 244.786 313.213 245.047C313.114 245.302 313.049 245.583 313.018 245.891L312.612 246.125C312.612 245.615 312.661 245.135 312.76 244.688C312.864 244.24 313.023 243.844 313.237 243.5C313.45 243.151 313.721 242.88 314.049 242.688C314.383 242.49 314.778 242.391 315.237 242.391C315.341 242.391 315.461 242.404 315.596 242.43C315.732 242.451 315.825 242.474 315.877 242.5ZM321.125 251.156C320.536 251.156 320.003 251.057 319.523 250.859C319.049 250.656 318.641 250.372 318.297 250.008C317.958 249.643 317.698 249.211 317.516 248.711C317.333 248.211 317.242 247.664 317.242 247.07V246.742C317.242 246.055 317.344 245.443 317.547 244.906C317.75 244.365 318.026 243.906 318.375 243.531C318.724 243.156 319.12 242.872 319.562 242.68C320.005 242.487 320.463 242.391 320.937 242.391C321.542 242.391 322.062 242.495 322.5 242.703C322.943 242.911 323.305 243.203 323.586 243.578C323.867 243.948 324.075 244.385 324.211 244.891C324.346 245.391 324.414 245.938 324.414 246.531V247.18H318.101V246H322.969V245.891C322.948 245.516 322.87 245.151 322.734 244.797C322.604 244.443 322.396 244.151 322.109 243.922C321.823 243.693 321.432 243.578 320.937 243.578C320.609 243.578 320.307 243.648 320.031 243.789C319.755 243.924 319.518 244.128 319.32 244.398C319.122 244.669 318.969 245 318.859 245.391C318.75 245.781 318.695 246.232 318.695 246.742V247.07C318.695 247.471 318.75 247.849 318.859 248.203C318.974 248.552 319.138 248.859 319.351 249.125C319.57 249.391 319.833 249.599 320.141 249.75C320.453 249.901 320.807 249.977 321.203 249.977C321.713 249.977 322.146 249.872 322.5 249.664C322.854 249.456 323.164 249.177 323.43 248.828L324.305 249.523C324.122 249.799 323.891 250.062 323.609 250.312C323.328 250.562 322.982 250.766 322.57 250.922C322.164 251.078 321.682 251.156 321.125 251.156ZM330.044 249.969C330.388 249.969 330.706 249.898 330.997 249.758C331.289 249.617 331.529 249.424 331.716 249.18C331.904 248.93 332.01 248.646 332.036 248.328H333.411C333.385 248.828 333.216 249.294 332.904 249.727C332.596 250.154 332.193 250.5 331.693 250.766C331.193 251.026 330.643 251.156 330.044 251.156C329.409 251.156 328.854 251.044 328.38 250.82C327.911 250.596 327.521 250.289 327.208 249.898C326.901 249.508 326.669 249.06 326.513 248.555C326.362 248.044 326.286 247.505 326.286 246.938V246.609C326.286 246.042 326.362 245.505 326.513 245C326.669 244.49 326.901 244.039 327.208 243.648C327.521 243.258 327.911 242.951 328.38 242.727C328.854 242.503 329.409 242.391 330.044 242.391C330.706 242.391 331.284 242.526 331.779 242.797C332.273 243.062 332.661 243.427 332.943 243.891C333.229 244.349 333.385 244.87 333.411 245.453H332.036C332.01 245.104 331.911 244.789 331.74 244.508C331.573 244.227 331.344 244.003 331.052 243.836C330.766 243.664 330.43 243.578 330.044 243.578C329.602 243.578 329.229 243.667 328.927 243.844C328.63 244.016 328.393 244.25 328.216 244.547C328.044 244.839 327.919 245.164 327.841 245.523C327.768 245.878 327.732 246.24 327.732 246.609V246.938C327.732 247.307 327.768 247.672 327.841 248.031C327.914 248.391 328.036 248.716 328.208 249.008C328.385 249.299 328.622 249.534 328.919 249.711C329.221 249.883 329.596 249.969 330.044 249.969ZM339.104 251.156C338.516 251.156 337.982 251.057 337.503 250.859C337.029 250.656 336.62 250.372 336.276 250.008C335.938 249.643 335.677 249.211 335.495 248.711C335.313 248.211 335.221 247.664 335.221 247.07V246.742C335.221 246.055 335.323 245.443 335.526 244.906C335.729 244.365 336.005 243.906 336.354 243.531C336.703 243.156 337.099 242.872 337.542 242.68C337.985 242.487 338.443 242.391 338.917 242.391C339.521 242.391 340.042 242.495 340.479 242.703C340.922 242.911 341.284 243.203 341.565 243.578C341.846 243.948 342.055 244.385 342.19 244.891C342.326 245.391 342.393 245.938 342.393 246.531V247.18H336.081V246H340.948V245.891C340.927 245.516 340.849 245.151 340.714 244.797C340.583 244.443 340.375 244.151 340.089 243.922C339.802 243.693 339.412 243.578 338.917 243.578C338.589 243.578 338.287 243.648 338.011 243.789C337.735 243.924 337.498 244.128 337.3 244.398C337.102 244.669 336.948 245 336.839 245.391C336.729 245.781 336.675 246.232 336.675 246.742V247.07C336.675 247.471 336.729 247.849 336.839 248.203C336.953 248.552 337.117 248.859 337.331 249.125C337.55 249.391 337.813 249.599 338.12 249.75C338.432 249.901 338.787 249.977 339.182 249.977C339.693 249.977 340.125 249.872 340.479 249.664C340.833 249.456 341.143 249.177 341.409 248.828L342.284 249.523C342.102 249.799 341.87 250.062 341.589 250.312C341.307 250.562 340.961 250.766 340.55 250.922C340.143 251.078 339.662 251.156 339.104 251.156ZM346.086 243.875V251H344.641V242.547H346.047L346.086 243.875ZM348.727 242.5L348.719 243.844C348.599 243.818 348.485 243.802 348.375 243.797C348.271 243.786 348.151 243.781 348.016 243.781C347.683 243.781 347.388 243.833 347.133 243.938C346.878 244.042 346.662 244.188 346.485 244.375C346.308 244.562 346.167 244.786 346.063 245.047C345.964 245.302 345.899 245.583 345.867 245.891L345.461 246.125C345.461 245.615 345.511 245.135 345.61 244.688C345.714 244.24 345.873 243.844 346.086 243.5C346.3 243.151 346.571 242.88 346.899 242.688C347.232 242.49 347.628 242.391 348.086 242.391C348.19 242.391 348.31 242.404 348.446 242.43C348.581 242.451 348.675 242.474 348.727 242.5ZM360.323 249.047V242.547H361.776V251H360.394L360.323 249.047ZM360.597 247.266L361.198 247.25C361.198 247.812 361.138 248.333 361.019 248.812C360.904 249.286 360.717 249.698 360.456 250.047C360.196 250.396 359.855 250.669 359.433 250.867C359.011 251.06 358.498 251.156 357.894 251.156C357.482 251.156 357.105 251.096 356.761 250.977C356.422 250.857 356.131 250.672 355.886 250.422C355.641 250.172 355.451 249.846 355.316 249.445C355.185 249.044 355.12 248.562 355.12 248V242.547H356.566V248.016C356.566 248.396 356.607 248.711 356.691 248.961C356.779 249.206 356.896 249.401 357.042 249.547C357.193 249.688 357.36 249.786 357.542 249.844C357.73 249.901 357.922 249.93 358.12 249.93C358.735 249.93 359.222 249.812 359.581 249.578C359.941 249.339 360.198 249.018 360.355 248.617C360.516 248.211 360.597 247.76 360.597 247.266ZM365.985 244.352V251H364.54V242.547H365.907L365.985 244.352ZM365.641 246.453L365.04 246.43C365.045 245.852 365.131 245.318 365.297 244.828C365.464 244.333 365.698 243.904 366.001 243.539C366.303 243.174 366.662 242.893 367.079 242.695C367.501 242.492 367.967 242.391 368.477 242.391C368.894 242.391 369.269 242.448 369.602 242.562C369.935 242.672 370.219 242.849 370.454 243.094C370.693 243.339 370.876 243.656 371.001 244.047C371.126 244.432 371.188 244.904 371.188 245.461V251H369.735V245.445C369.735 245.003 369.67 244.648 369.54 244.383C369.409 244.112 369.219 243.917 368.969 243.797C368.719 243.672 368.412 243.609 368.047 243.609C367.688 243.609 367.36 243.685 367.063 243.836C366.771 243.987 366.519 244.195 366.305 244.461C366.097 244.727 365.933 245.031 365.813 245.375C365.698 245.714 365.641 246.073 365.641 246.453ZM177.443 270.758C177.443 270.549 177.396 270.357 177.303 270.18C177.214 269.997 177.029 269.833 176.748 269.688C176.472 269.536 176.055 269.406 175.498 269.297C175.029 269.198 174.605 269.081 174.225 268.945C173.85 268.81 173.529 268.646 173.264 268.453C173.003 268.26 172.803 268.034 172.662 267.773C172.521 267.513 172.451 267.208 172.451 266.859C172.451 266.526 172.524 266.211 172.67 265.914C172.821 265.617 173.032 265.354 173.303 265.125C173.579 264.896 173.91 264.716 174.295 264.586C174.68 264.456 175.11 264.391 175.584 264.391C176.261 264.391 176.839 264.51 177.318 264.75C177.798 264.99 178.165 265.31 178.42 265.711C178.675 266.107 178.803 266.547 178.803 267.031H177.357C177.357 266.797 177.287 266.57 177.146 266.352C177.011 266.128 176.811 265.943 176.545 265.797C176.285 265.651 175.964 265.578 175.584 265.578C175.183 265.578 174.857 265.641 174.607 265.766C174.363 265.885 174.183 266.039 174.068 266.227C173.959 266.414 173.904 266.612 173.904 266.82C173.904 266.977 173.93 267.117 173.982 267.242C174.04 267.362 174.139 267.474 174.279 267.578C174.42 267.677 174.618 267.771 174.873 267.859C175.128 267.948 175.454 268.036 175.85 268.125C176.542 268.281 177.113 268.469 177.561 268.688C178.008 268.906 178.342 269.174 178.561 269.492C178.779 269.81 178.889 270.195 178.889 270.648C178.889 271.018 178.811 271.357 178.654 271.664C178.503 271.971 178.282 272.237 177.99 272.461C177.704 272.68 177.36 272.852 176.959 272.977C176.563 273.096 176.118 273.156 175.623 273.156C174.878 273.156 174.248 273.023 173.732 272.758C173.217 272.492 172.826 272.148 172.561 271.727C172.295 271.305 172.162 270.859 172.162 270.391H173.615C173.636 270.786 173.751 271.102 173.959 271.336C174.167 271.565 174.423 271.729 174.725 271.828C175.027 271.922 175.326 271.969 175.623 271.969C176.019 271.969 176.35 271.917 176.615 271.812C176.886 271.708 177.092 271.565 177.232 271.383C177.373 271.201 177.443 270.992 177.443 270.758ZM184.855 273.156C184.266 273.156 183.733 273.057 183.253 272.859C182.779 272.656 182.371 272.372 182.027 272.008C181.688 271.643 181.428 271.211 181.246 270.711C181.063 270.211 180.972 269.664 180.972 269.07V268.742C180.972 268.055 181.074 267.443 181.277 266.906C181.48 266.365 181.756 265.906 182.105 265.531C182.454 265.156 182.85 264.872 183.292 264.68C183.735 264.487 184.193 264.391 184.667 264.391C185.272 264.391 185.792 264.495 186.23 264.703C186.673 264.911 187.035 265.203 187.316 265.578C187.597 265.948 187.805 266.385 187.941 266.891C188.076 267.391 188.144 267.938 188.144 268.531V269.18H181.831V268H186.699V267.891C186.678 267.516 186.6 267.151 186.464 266.797C186.334 266.443 186.126 266.151 185.839 265.922C185.553 265.693 185.162 265.578 184.667 265.578C184.339 265.578 184.037 265.648 183.761 265.789C183.485 265.924 183.248 266.128 183.05 266.398C182.852 266.669 182.699 267 182.589 267.391C182.48 267.781 182.425 268.232 182.425 268.742V269.07C182.425 269.471 182.48 269.849 182.589 270.203C182.704 270.552 182.868 270.859 183.081 271.125C183.3 271.391 183.563 271.599 183.871 271.75C184.183 271.901 184.537 271.977 184.933 271.977C185.443 271.977 185.876 271.872 186.23 271.664C186.584 271.456 186.894 271.177 187.16 270.828L188.035 271.523C187.852 271.799 187.621 272.062 187.339 272.312C187.058 272.562 186.712 272.766 186.3 272.922C185.894 273.078 185.412 273.156 184.855 273.156ZM191.837 265.875V273H190.391V264.547H191.798L191.837 265.875ZM194.477 264.5L194.47 265.844C194.35 265.818 194.235 265.802 194.126 265.797C194.022 265.786 193.902 265.781 193.766 265.781C193.433 265.781 193.139 265.833 192.884 265.938C192.628 266.042 192.412 266.188 192.235 266.375C192.058 266.562 191.918 266.786 191.813 267.047C191.714 267.302 191.649 267.583 191.618 267.891L191.212 268.125C191.212 267.615 191.261 267.135 191.36 266.688C191.464 266.24 191.623 265.844 191.837 265.5C192.05 265.151 192.321 264.88 192.649 264.688C192.983 264.49 193.378 264.391 193.837 264.391C193.941 264.391 194.061 264.404 194.196 264.43C194.332 264.451 194.425 264.474 194.477 264.5ZM199.084 271.695L201.397 264.547H202.873L199.834 273H198.866L199.084 271.695ZM197.155 264.547L199.537 271.734L199.701 273H198.733L195.67 264.547H197.155ZM206.394 264.547V273H204.941V264.547H206.394ZM204.832 262.305C204.832 262.07 204.902 261.872 205.043 261.711C205.189 261.549 205.402 261.469 205.683 261.469C205.959 261.469 206.17 261.549 206.316 261.711C206.467 261.872 206.543 262.07 206.543 262.305C206.543 262.529 206.467 262.721 206.316 262.883C206.17 263.039 205.959 263.117 205.683 263.117C205.402 263.117 205.189 263.039 205.043 262.883C204.902 262.721 204.832 262.529 204.832 262.305ZM212.657 271.969C213.001 271.969 213.319 271.898 213.611 271.758C213.902 271.617 214.142 271.424 214.329 271.18C214.517 270.93 214.624 270.646 214.65 270.328H216.025C215.999 270.828 215.829 271.294 215.517 271.727C215.21 272.154 214.806 272.5 214.306 272.766C213.806 273.026 213.256 273.156 212.657 273.156C212.022 273.156 211.467 273.044 210.993 272.82C210.525 272.596 210.134 272.289 209.821 271.898C209.514 271.508 209.282 271.06 209.126 270.555C208.975 270.044 208.9 269.505 208.9 268.938V268.609C208.9 268.042 208.975 267.505 209.126 267C209.282 266.49 209.514 266.039 209.821 265.648C210.134 265.258 210.525 264.951 210.993 264.727C211.467 264.503 212.022 264.391 212.657 264.391C213.319 264.391 213.897 264.526 214.392 264.797C214.887 265.062 215.275 265.427 215.556 265.891C215.842 266.349 215.999 266.87 216.025 267.453H214.65C214.624 267.104 214.525 266.789 214.353 266.508C214.186 266.227 213.957 266.003 213.665 265.836C213.379 265.664 213.043 265.578 212.657 265.578C212.215 265.578 211.842 265.667 211.54 265.844C211.243 266.016 211.006 266.25 210.829 266.547C210.657 266.839 210.532 267.164 210.454 267.523C210.381 267.878 210.345 268.24 210.345 268.609V268.938C210.345 269.307 210.381 269.672 210.454 270.031C210.527 270.391 210.65 270.716 210.821 271.008C210.999 271.299 211.236 271.534 211.532 271.711C211.835 271.883 212.21 271.969 212.657 271.969ZM219.78 264.547V273H218.327V264.547H219.78ZM218.217 262.305C218.217 262.07 218.288 261.872 218.428 261.711C218.574 261.549 218.788 261.469 219.069 261.469C219.345 261.469 219.556 261.549 219.702 261.711C219.853 261.872 219.928 262.07 219.928 262.305C219.928 262.529 219.853 262.721 219.702 262.883C219.556 263.039 219.345 263.117 219.069 263.117C218.788 263.117 218.574 263.039 218.428 262.883C218.288 262.721 218.217 262.529 218.217 262.305ZM222.277 268.867V268.688C222.277 268.078 222.366 267.513 222.543 266.992C222.72 266.466 222.975 266.01 223.309 265.625C223.642 265.234 224.046 264.932 224.52 264.719C224.994 264.5 225.525 264.391 226.113 264.391C226.707 264.391 227.241 264.5 227.715 264.719C228.194 264.932 228.6 265.234 228.934 265.625C229.272 266.01 229.53 266.466 229.707 266.992C229.884 267.513 229.973 268.078 229.973 268.688V268.867C229.973 269.477 229.884 270.042 229.707 270.562C229.53 271.083 229.272 271.539 228.934 271.93C228.6 272.315 228.197 272.617 227.723 272.836C227.254 273.049 226.723 273.156 226.129 273.156C225.535 273.156 225.001 273.049 224.527 272.836C224.053 272.617 223.647 272.315 223.309 271.93C222.975 271.539 222.72 271.083 222.543 270.562C222.366 270.042 222.277 269.477 222.277 268.867ZM223.723 268.688V268.867C223.723 269.289 223.772 269.688 223.871 270.062C223.97 270.432 224.119 270.76 224.316 271.047C224.52 271.333 224.772 271.56 225.074 271.727C225.376 271.888 225.728 271.969 226.129 271.969C226.525 271.969 226.871 271.888 227.168 271.727C227.47 271.56 227.72 271.333 227.918 271.047C228.116 270.76 228.264 270.432 228.363 270.062C228.468 269.688 228.52 269.289 228.52 268.867V268.688C228.52 268.271 228.468 267.878 228.363 267.508C228.264 267.133 228.113 266.802 227.91 266.516C227.712 266.224 227.462 265.995 227.16 265.828C226.863 265.661 226.514 265.578 226.113 265.578C225.718 265.578 225.369 265.661 225.066 265.828C224.77 265.995 224.52 266.224 224.316 266.516C224.119 266.802 223.97 267.133 223.871 267.508C223.772 267.878 223.723 268.271 223.723 268.688ZM240.382 273.156C239.793 273.156 239.259 273.057 238.78 272.859C238.306 272.656 237.897 272.372 237.554 272.008C237.215 271.643 236.955 271.211 236.772 270.711C236.59 270.211 236.499 269.664 236.499 269.07V268.742C236.499 268.055 236.601 267.443 236.804 266.906C237.007 266.365 237.283 265.906 237.632 265.531C237.981 265.156 238.377 264.872 238.819 264.68C239.262 264.487 239.72 264.391 240.194 264.391C240.798 264.391 241.319 264.495 241.757 264.703C242.2 264.911 242.561 265.203 242.843 265.578C243.124 265.948 243.332 266.385 243.468 266.891C243.603 267.391 243.671 267.938 243.671 268.531V269.18H237.358V268H242.226V267.891C242.205 267.516 242.127 267.151 241.991 266.797C241.861 266.443 241.653 266.151 241.366 265.922C241.08 265.693 240.689 265.578 240.194 265.578C239.866 265.578 239.564 265.648 239.288 265.789C239.012 265.924 238.775 266.128 238.577 266.398C238.379 266.669 238.226 267 238.116 267.391C238.007 267.781 237.952 268.232 237.952 268.742V269.07C237.952 269.471 238.007 269.849 238.116 270.203C238.231 270.552 238.395 270.859 238.608 271.125C238.827 271.391 239.09 271.599 239.397 271.75C239.71 271.901 240.064 271.977 240.46 271.977C240.97 271.977 241.403 271.872 241.757 271.664C242.111 271.456 242.421 271.177 242.686 270.828L243.561 271.523C243.379 271.799 243.147 272.062 242.866 272.312C242.585 272.562 242.239 272.766 241.827 272.922C241.421 273.078 240.939 273.156 240.382 273.156ZM247.848 273H246.403V263.812C246.403 263.172 246.528 262.63 246.778 262.188C247.028 261.745 247.385 261.409 247.848 261.18C248.312 260.951 248.861 260.836 249.496 260.836C249.871 260.836 250.239 260.883 250.598 260.977C250.957 261.065 251.327 261.177 251.707 261.312L251.465 262.531C251.226 262.438 250.947 262.349 250.629 262.266C250.317 262.177 249.973 262.133 249.598 262.133C248.978 262.133 248.53 262.273 248.254 262.555C247.983 262.831 247.848 263.25 247.848 263.812V273ZM249.575 264.547V265.656H245.067V264.547H249.575ZM252.418 264.547V273H250.973V264.547H252.418ZM258.736 271.969C259.08 271.969 259.398 271.898 259.689 271.758C259.981 271.617 260.221 271.424 260.408 271.18C260.596 270.93 260.702 270.646 260.728 270.328H262.103C262.077 270.828 261.908 271.294 261.596 271.727C261.288 272.154 260.885 272.5 260.385 272.766C259.885 273.026 259.335 273.156 258.736 273.156C258.101 273.156 257.546 273.044 257.072 272.82C256.603 272.596 256.213 272.289 255.9 271.898C255.593 271.508 255.361 271.06 255.205 270.555C255.054 270.044 254.978 269.505 254.978 268.938V268.609C254.978 268.042 255.054 267.505 255.205 267C255.361 266.49 255.593 266.039 255.9 265.648C256.213 265.258 256.603 264.951 257.072 264.727C257.546 264.503 258.101 264.391 258.736 264.391C259.398 264.391 259.976 264.526 260.471 264.797C260.965 265.062 261.353 265.427 261.635 265.891C261.921 266.349 262.077 266.87 262.103 267.453H260.728C260.702 267.104 260.603 266.789 260.431 266.508C260.265 266.227 260.036 266.003 259.744 265.836C259.458 265.664 259.122 265.578 258.736 265.578C258.293 265.578 257.921 265.667 257.619 265.844C257.322 266.016 257.085 266.25 256.908 266.547C256.736 266.839 256.611 267.164 256.533 267.523C256.46 267.878 256.424 268.24 256.424 268.609V268.938C256.424 269.307 256.46 269.672 256.533 270.031C256.606 270.391 256.728 270.716 256.9 271.008C257.077 271.299 257.314 271.534 257.611 271.711C257.913 271.883 258.288 271.969 258.736 271.969ZM265.859 264.547V273H264.406V264.547H265.859ZM264.296 262.305C264.296 262.07 264.366 261.872 264.507 261.711C264.653 261.549 264.866 261.469 265.148 261.469C265.424 261.469 265.635 261.549 265.781 261.711C265.932 261.872 266.007 262.07 266.007 262.305C266.007 262.529 265.932 262.721 265.781 262.883C265.635 263.039 265.424 263.117 265.148 263.117C264.866 263.117 264.653 263.039 264.507 262.883C264.366 262.721 264.296 262.529 264.296 262.305ZM272.247 273.156C271.658 273.156 271.124 273.057 270.645 272.859C270.171 272.656 269.762 272.372 269.419 272.008C269.08 271.643 268.82 271.211 268.637 270.711C268.455 270.211 268.364 269.664 268.364 269.07V268.742C268.364 268.055 268.466 267.443 268.669 266.906C268.872 266.365 269.148 265.906 269.497 265.531C269.846 265.156 270.242 264.872 270.684 264.68C271.127 264.487 271.585 264.391 272.059 264.391C272.663 264.391 273.184 264.495 273.622 264.703C274.065 264.911 274.426 265.203 274.708 265.578C274.989 265.948 275.197 266.385 275.333 266.891C275.468 267.391 275.536 267.938 275.536 268.531V269.18H269.223V268H274.091V267.891C274.07 267.516 273.992 267.151 273.856 266.797C273.726 266.443 273.518 266.151 273.231 265.922C272.945 265.693 272.554 265.578 272.059 265.578C271.731 265.578 271.429 265.648 271.153 265.789C270.877 265.924 270.64 266.128 270.442 266.398C270.244 266.669 270.091 267 269.981 267.391C269.872 267.781 269.817 268.232 269.817 268.742V269.07C269.817 269.471 269.872 269.849 269.981 270.203C270.096 270.552 270.26 270.859 270.473 271.125C270.692 271.391 270.955 271.599 271.262 271.75C271.575 271.901 271.929 271.977 272.325 271.977C272.835 271.977 273.268 271.872 273.622 271.664C273.976 271.456 274.286 271.177 274.551 270.828L275.426 271.523C275.244 271.799 275.012 272.062 274.731 272.312C274.45 272.562 274.104 272.766 273.692 272.922C273.286 273.078 272.804 273.156 272.247 273.156ZM279.229 266.352V273H277.783V264.547H279.151L279.229 266.352ZM278.885 268.453L278.283 268.43C278.289 267.852 278.375 267.318 278.541 266.828C278.708 266.333 278.942 265.904 279.244 265.539C279.546 265.174 279.906 264.893 280.322 264.695C280.744 264.492 281.21 264.391 281.721 264.391C282.138 264.391 282.513 264.448 282.846 264.562C283.179 264.672 283.463 264.849 283.697 265.094C283.937 265.339 284.119 265.656 284.244 266.047C284.369 266.432 284.432 266.904 284.432 267.461V273H282.979V267.445C282.979 267.003 282.914 266.648 282.783 266.383C282.653 266.112 282.463 265.917 282.213 265.797C281.963 265.672 281.656 265.609 281.291 265.609C280.932 265.609 280.604 265.685 280.307 265.836C280.015 265.987 279.763 266.195 279.549 266.461C279.341 266.727 279.177 267.031 279.057 267.375C278.942 267.714 278.885 268.073 278.885 268.453ZM290.726 264.547V265.656H286.156V264.547H290.726ZM287.703 262.492H289.148V270.906C289.148 271.193 289.192 271.409 289.281 271.555C289.369 271.701 289.484 271.797 289.625 271.844C289.765 271.891 289.916 271.914 290.078 271.914C290.198 271.914 290.323 271.904 290.453 271.883C290.588 271.857 290.69 271.836 290.757 271.82L290.765 273C290.651 273.036 290.5 273.07 290.312 273.102C290.13 273.138 289.908 273.156 289.648 273.156C289.294 273.156 288.968 273.086 288.671 272.945C288.375 272.805 288.138 272.57 287.961 272.242C287.789 271.909 287.703 271.461 287.703 270.898V262.492ZM296.489 273.156C295.901 273.156 295.367 273.057 294.888 272.859C294.414 272.656 294.005 272.372 293.661 272.008C293.323 271.643 293.062 271.211 292.88 270.711C292.698 270.211 292.606 269.664 292.606 269.07V268.742C292.606 268.055 292.708 267.443 292.911 266.906C293.114 266.365 293.39 265.906 293.739 265.531C294.088 265.156 294.484 264.872 294.927 264.68C295.37 264.487 295.828 264.391 296.302 264.391C296.906 264.391 297.427 264.495 297.864 264.703C298.307 264.911 298.669 265.203 298.95 265.578C299.231 265.948 299.44 266.385 299.575 266.891C299.711 267.391 299.778 267.938 299.778 268.531V269.18H293.466V268H298.333V267.891C298.312 267.516 298.234 267.151 298.099 266.797C297.968 266.443 297.76 266.151 297.474 265.922C297.187 265.693 296.797 265.578 296.302 265.578C295.974 265.578 295.672 265.648 295.396 265.789C295.12 265.924 294.883 266.128 294.685 266.398C294.487 266.669 294.333 267 294.224 267.391C294.114 267.781 294.06 268.232 294.06 268.742V269.07C294.06 269.471 294.114 269.849 294.224 270.203C294.338 270.552 294.502 270.859 294.716 271.125C294.935 271.391 295.198 271.599 295.505 271.75C295.817 271.901 296.172 271.977 296.567 271.977C297.078 271.977 297.51 271.872 297.864 271.664C298.218 271.456 298.528 271.177 298.794 270.828L299.669 271.523C299.487 271.799 299.255 272.062 298.974 272.312C298.692 272.562 298.346 272.766 297.935 272.922C297.528 273.078 297.047 273.156 296.489 273.156ZM308.93 272.125L311.281 264.547H312.828L309.437 274.305C309.359 274.513 309.255 274.737 309.125 274.977C309 275.221 308.838 275.453 308.641 275.672C308.443 275.891 308.203 276.068 307.922 276.203C307.646 276.344 307.315 276.414 306.93 276.414C306.815 276.414 306.669 276.398 306.492 276.367C306.315 276.336 306.19 276.31 306.117 276.289L306.109 275.117C306.151 275.122 306.216 275.128 306.305 275.133C306.398 275.143 306.463 275.148 306.5 275.148C306.828 275.148 307.107 275.104 307.336 275.016C307.565 274.932 307.758 274.789 307.914 274.586C308.075 274.388 308.213 274.115 308.328 273.766L308.93 272.125ZM307.203 264.547L309.398 271.109L309.773 272.633L308.734 273.164L305.625 264.547H307.203ZM175.904 293.969C176.248 293.969 176.566 293.898 176.857 293.758C177.149 293.617 177.389 293.424 177.576 293.18C177.764 292.93 177.87 292.646 177.896 292.328H179.271C179.245 292.828 179.076 293.294 178.764 293.727C178.456 294.154 178.053 294.5 177.553 294.766C177.053 295.026 176.503 295.156 175.904 295.156C175.269 295.156 174.714 295.044 174.24 294.82C173.771 294.596 173.381 294.289 173.068 293.898C172.761 293.508 172.529 293.06 172.373 292.555C172.222 292.044 172.146 291.505 172.146 290.938V290.609C172.146 290.042 172.222 289.505 172.373 289C172.529 288.49 172.761 288.039 173.068 287.648C173.381 287.258 173.771 286.951 174.24 286.727C174.714 286.503 175.269 286.391 175.904 286.391C176.566 286.391 177.144 286.526 177.639 286.797C178.133 287.062 178.521 287.427 178.803 287.891C179.089 288.349 179.245 288.87 179.271 289.453H177.896C177.87 289.104 177.771 288.789 177.6 288.508C177.433 288.227 177.204 288.003 176.912 287.836C176.626 287.664 176.29 287.578 175.904 287.578C175.462 287.578 175.089 287.667 174.787 287.844C174.49 288.016 174.253 288.25 174.076 288.547C173.904 288.839 173.779 289.164 173.701 289.523C173.628 289.878 173.592 290.24 173.592 290.609V290.938C173.592 291.307 173.628 291.672 173.701 292.031C173.774 292.391 173.896 292.716 174.068 293.008C174.245 293.299 174.482 293.534 174.779 293.711C175.081 293.883 175.456 293.969 175.904 293.969ZM181.074 290.867V290.688C181.074 290.078 181.162 289.513 181.339 288.992C181.516 288.466 181.772 288.01 182.105 287.625C182.438 287.234 182.842 286.932 183.316 286.719C183.79 286.5 184.321 286.391 184.91 286.391C185.503 286.391 186.037 286.5 186.511 286.719C186.99 286.932 187.397 287.234 187.73 287.625C188.068 288.01 188.326 288.466 188.503 288.992C188.68 289.513 188.769 290.078 188.769 290.688V290.867C188.769 291.477 188.68 292.042 188.503 292.562C188.326 293.083 188.068 293.539 187.73 293.93C187.397 294.315 186.993 294.617 186.519 294.836C186.05 295.049 185.519 295.156 184.925 295.156C184.331 295.156 183.798 295.049 183.324 294.836C182.85 294.617 182.443 294.315 182.105 293.93C181.772 293.539 181.516 293.083 181.339 292.562C181.162 292.042 181.074 291.477 181.074 290.867ZM182.519 290.688V290.867C182.519 291.289 182.568 291.688 182.667 292.062C182.766 292.432 182.915 292.76 183.113 293.047C183.316 293.333 183.568 293.56 183.871 293.727C184.173 293.888 184.524 293.969 184.925 293.969C185.321 293.969 185.667 293.888 185.964 293.727C186.266 293.56 186.516 293.333 186.714 293.047C186.912 292.76 187.061 292.432 187.16 292.062C187.264 291.688 187.316 291.289 187.316 290.867V290.688C187.316 290.271 187.264 289.878 187.16 289.508C187.061 289.133 186.91 288.802 186.706 288.516C186.509 288.224 186.259 287.995 185.956 287.828C185.66 287.661 185.311 287.578 184.91 287.578C184.514 287.578 184.165 287.661 183.863 287.828C183.566 287.995 183.316 288.224 183.113 288.516C182.915 288.802 182.766 289.133 182.667 289.508C182.568 289.878 182.519 290.271 182.519 290.688ZM192.587 288.352V295H191.141V286.547H192.509L192.587 288.352ZM192.243 290.453L191.641 290.43C191.647 289.852 191.733 289.318 191.899 288.828C192.066 288.333 192.3 287.904 192.602 287.539C192.905 287.174 193.264 286.893 193.681 286.695C194.102 286.492 194.569 286.391 195.079 286.391C195.496 286.391 195.871 286.448 196.204 286.562C196.537 286.672 196.821 286.849 197.056 287.094C197.295 287.339 197.477 287.656 197.602 288.047C197.727 288.432 197.79 288.904 197.79 289.461V295H196.337V289.445C196.337 289.003 196.272 288.648 196.141 288.383C196.011 288.112 195.821 287.917 195.571 287.797C195.321 287.672 195.014 287.609 194.649 287.609C194.29 287.609 193.962 287.685 193.665 287.836C193.373 287.987 193.121 288.195 192.907 288.461C192.699 288.727 192.535 289.031 192.415 289.375C192.3 289.714 192.243 290.073 192.243 290.453ZM202.475 295H201.03V285.812C201.03 285.172 201.155 284.63 201.405 284.188C201.655 283.745 202.011 283.409 202.475 283.18C202.938 282.951 203.488 282.836 204.123 282.836C204.498 282.836 204.866 282.883 205.225 282.977C205.584 283.065 205.954 283.177 206.334 283.312L206.092 284.531C205.853 284.438 205.574 284.349 205.256 284.266C204.944 284.177 204.6 284.133 204.225 284.133C203.605 284.133 203.157 284.273 202.881 284.555C202.61 284.831 202.475 285.25 202.475 285.812V295ZM204.201 286.547V287.656H199.694V286.547H204.201ZM207.045 286.547V295H205.6V286.547H207.045ZM214.965 293.555V289.203C214.965 288.87 214.897 288.581 214.761 288.336C214.631 288.086 214.433 287.893 214.168 287.758C213.902 287.622 213.574 287.555 213.183 287.555C212.819 287.555 212.498 287.617 212.222 287.742C211.952 287.867 211.738 288.031 211.582 288.234C211.431 288.438 211.355 288.656 211.355 288.891H209.91C209.91 288.589 209.988 288.289 210.144 287.992C210.301 287.695 210.525 287.427 210.816 287.188C211.113 286.943 211.467 286.75 211.879 286.609C212.295 286.464 212.759 286.391 213.269 286.391C213.884 286.391 214.426 286.495 214.894 286.703C215.368 286.911 215.738 287.227 216.004 287.648C216.275 288.065 216.41 288.589 216.41 289.219V293.156C216.41 293.438 216.433 293.737 216.48 294.055C216.532 294.372 216.608 294.646 216.707 294.875V295H215.199C215.126 294.833 215.069 294.612 215.027 294.336C214.985 294.055 214.965 293.794 214.965 293.555ZM215.215 289.875L215.23 290.891H213.769C213.358 290.891 212.991 290.924 212.668 290.992C212.345 291.055 212.074 291.151 211.855 291.281C211.636 291.411 211.47 291.576 211.355 291.773C211.241 291.966 211.183 292.193 211.183 292.453C211.183 292.719 211.243 292.961 211.363 293.18C211.483 293.398 211.663 293.573 211.902 293.703C212.147 293.828 212.446 293.891 212.801 293.891C213.243 293.891 213.634 293.797 213.972 293.609C214.311 293.422 214.579 293.193 214.777 292.922C214.98 292.651 215.09 292.388 215.105 292.133L215.722 292.828C215.686 293.047 215.587 293.289 215.426 293.555C215.264 293.82 215.048 294.076 214.777 294.32C214.511 294.56 214.194 294.76 213.824 294.922C213.459 295.078 213.048 295.156 212.59 295.156C212.017 295.156 211.514 295.044 211.082 294.82C210.655 294.596 210.321 294.297 210.082 293.922C209.847 293.542 209.73 293.117 209.73 292.648C209.73 292.195 209.819 291.797 209.996 291.453C210.173 291.104 210.428 290.815 210.761 290.586C211.095 290.352 211.496 290.174 211.965 290.055C212.433 289.935 212.957 289.875 213.535 289.875H215.215ZM219.236 283H220.689V293.359L220.564 295H219.236V283ZM226.4 290.703V290.867C226.4 291.482 226.327 292.052 226.181 292.578C226.035 293.099 225.821 293.552 225.54 293.938C225.259 294.323 224.915 294.622 224.509 294.836C224.103 295.049 223.637 295.156 223.111 295.156C222.574 295.156 222.103 295.065 221.696 294.883C221.295 294.695 220.957 294.427 220.681 294.078C220.405 293.729 220.183 293.307 220.017 292.812C219.855 292.318 219.743 291.76 219.681 291.141V290.422C219.743 289.797 219.855 289.237 220.017 288.742C220.183 288.247 220.405 287.826 220.681 287.477C220.957 287.122 221.295 286.854 221.696 286.672C222.098 286.484 222.564 286.391 223.095 286.391C223.626 286.391 224.098 286.495 224.509 286.703C224.92 286.906 225.264 287.198 225.54 287.578C225.821 287.958 226.035 288.414 226.181 288.945C226.327 289.471 226.4 290.057 226.4 290.703ZM224.946 290.867V290.703C224.946 290.281 224.907 289.885 224.829 289.516C224.751 289.141 224.626 288.812 224.454 288.531C224.282 288.245 224.056 288.021 223.775 287.859C223.493 287.693 223.147 287.609 222.736 287.609C222.371 287.609 222.053 287.672 221.782 287.797C221.517 287.922 221.29 288.091 221.103 288.305C220.915 288.513 220.762 288.753 220.642 289.023C220.527 289.289 220.441 289.565 220.384 289.852V291.734C220.467 292.099 220.603 292.451 220.79 292.789C220.983 293.122 221.238 293.396 221.556 293.609C221.879 293.823 222.277 293.93 222.751 293.93C223.142 293.93 223.475 293.852 223.751 293.695C224.032 293.534 224.259 293.312 224.431 293.031C224.608 292.75 224.738 292.424 224.821 292.055C224.905 291.685 224.946 291.289 224.946 290.867ZM230.358 283V295H228.905V283H230.358ZM236.746 295.156C236.158 295.156 235.624 295.057 235.145 294.859C234.671 294.656 234.262 294.372 233.918 294.008C233.58 293.643 233.319 293.211 233.137 292.711C232.955 292.211 232.863 291.664 232.863 291.07V290.742C232.863 290.055 232.965 289.443 233.168 288.906C233.371 288.365 233.647 287.906 233.996 287.531C234.345 287.156 234.741 286.872 235.184 286.68C235.626 286.487 236.085 286.391 236.559 286.391C237.163 286.391 237.684 286.495 238.121 286.703C238.564 286.911 238.926 287.203 239.207 287.578C239.488 287.948 239.697 288.385 239.832 288.891C239.968 289.391 240.035 289.938 240.035 290.531V291.18H233.723V290H238.59V289.891C238.569 289.516 238.491 289.151 238.356 288.797C238.225 288.443 238.017 288.151 237.731 287.922C237.444 287.693 237.053 287.578 236.559 287.578C236.231 287.578 235.928 287.648 235.652 287.789C235.376 287.924 235.139 288.128 234.941 288.398C234.744 288.669 234.59 289 234.481 289.391C234.371 289.781 234.316 290.232 234.316 290.742V291.07C234.316 291.471 234.371 291.849 234.481 292.203C234.595 292.552 234.759 292.859 234.973 293.125C235.191 293.391 235.455 293.599 235.762 293.75C236.074 293.901 236.428 293.977 236.824 293.977C237.335 293.977 237.767 293.872 238.121 293.664C238.475 293.456 238.785 293.177 239.051 292.828L239.926 293.523C239.744 293.799 239.512 294.062 239.231 294.312C238.949 294.562 238.603 294.766 238.191 294.922C237.785 295.078 237.303 295.156 236.746 295.156ZM242.306 294.234C242.306 293.99 242.382 293.784 242.533 293.617C242.689 293.445 242.913 293.359 243.205 293.359C243.496 293.359 243.718 293.445 243.869 293.617C244.025 293.784 244.103 293.99 244.103 294.234C244.103 294.474 244.025 294.677 243.869 294.844C243.718 295.01 243.496 295.094 243.205 295.094C242.913 295.094 242.689 295.01 242.533 294.844C242.382 294.677 242.306 294.474 242.306 294.234Z" fill="url(#paint1_radial_1919_325)"/>
<defs>
<radialGradient id="paint0_radial_1919_325" cx="0" cy="0" r="1" gradientUnits="userSpaceOnUse" gradientTransform="translate(276.05 193.5) rotate(90) scale(20.5 99.05)">
<stop stop-color="#0458AB"/>
<stop offset="1" stop-color="#03396E"/>
</radialGradient>
<radialGradient id="paint1_radial_1919_325" cx="0" cy="0" r="1" gradientUnits="userSpaceOnUse" gradientTransform="translate(274.262 280.8) rotate(90) scale(67.8 102.842)">
<stop stop-color="#0458AB"/>
<stop offset="1" stop-color="#03396E"/>
</radialGradient>
</defs>
</svg>
