<svg xmlns="http://www.w3.org/2000/svg" xmlns:xlink="http://www.w3.org/1999/xlink" width="1920" zoomAndPan="magnify" viewBox="0 0 1440 809.999993" height="1080" preserveAspectRatio="xMidYMid meet" version="1.0"><defs><clipPath id="74bfce3e07"><path d="M 598.683594 332 L 675 332 L 675 406 L 598.683594 406 Z M 598.683594 332 " clip-rule="nonzero"/></clipPath><clipPath id="34740a1a6b"><path d="M 704 226.261719 L 779 226.261719 L 779 301 L 704 301 Z M 704 226.261719 " clip-rule="nonzero"/></clipPath><clipPath id="06033b0426"><path d="M 767 292 L 841.683594 292 L 841.683594 366 L 767 366 Z M 767 292 " clip-rule="nonzero"/></clipPath></defs><rect x="-144" width="1728" fill="#ffffff" y="-80.999999" height="971.999992" fill-opacity="1"/><rect x="-144" width="1728" fill="#ffffff" y="-80.999999" height="971.999992" fill-opacity="1"/><path fill="#04247c" d="M 735.183594 424.804688 L 707.851562 439.050781 C 706.210938 439.910156 704.359375 440.363281 702.503906 440.363281 C 699.355469 440.363281 696.300781 439.058594 694.128906 436.777344 C 693.792969 436.429688 685.855469 428.054688 680.089844 416.789062 C 678.59375 413.863281 677.414062 411.078125 676.480469 408.414062 L 674.726562 417.082031 L 667.582031 452.359375 C 667.496094 452.78125 667.457031 453.203125 667.433594 453.621094 C 667.292969 454.414062 667.207031 455.226562 667.207031 456.0625 L 667.207031 569.808594 C 667.207031 577.484375 673.425781 583.699219 681.097656 583.699219 C 688.773438 583.699219 694.996094 577.484375 694.996094 569.808594 L 694.996094 466.769531 L 700.203125 467.824219 L 700.203125 569.808594 C 700.203125 577.484375 706.425781 583.699219 714.097656 583.699219 C 721.769531 583.699219 727.992188 577.484375 727.992188 569.808594 L 727.992188 460.320312 Z M 735.183594 424.804688 " fill-opacity="1" fill-rule="nonzero"/><path fill="#04247c" d="M 745.066406 361.113281 C 744.796875 361.046875 744.535156 360.96875 744.277344 360.882812 C 739.746094 359.335938 737.1875 354.65625 738.328125 350.003906 C 738.351562 349.910156 738.386719 349.824219 738.410156 349.734375 L 735.765625 349.085938 C 735.746094 349.179688 735.730469 349.269531 735.710938 349.363281 C 734.503906 354.28125 729.519531 357.304688 724.601562 356.097656 C 724.332031 356.03125 724.070312 355.957031 723.8125 355.867188 C 719.28125 354.320312 716.722656 349.644531 717.863281 344.988281 C 717.886719 344.898438 717.917969 344.808594 717.945312 344.71875 L 702.167969 340.851562 C 702.027344 341.375 701.898438 341.898438 701.789062 342.433594 C 699.019531 356.121094 707.867188 369.460938 721.554688 372.234375 C 731.964844 374.339844 742.171875 369.722656 747.679688 361.367188 C 746.8125 361.40625 745.933594 361.324219 745.066406 361.113281 Z M 745.066406 361.113281 " fill-opacity="1" fill-rule="nonzero"/><path fill="#04247c" d="M 722.023438 339.320312 C 724.121094 338.046875 726.589844 337.667969 728.972656 338.253906 C 729.242188 338.320312 729.503906 338.394531 729.761719 338.484375 C 733.316406 339.695312 735.644531 342.835938 735.941406 346.378906 L 739.511719 347.257812 C 741.570312 344.035156 745.523438 342.308594 749.4375 343.265625 C 749.707031 343.332031 749.96875 343.410156 750.226562 343.496094 C 750.722656 343.667969 751.1875 343.878906 751.636719 344.121094 C 750.253906 333.71875 742.449219 324.867188 731.589844 322.667969 C 719.332031 320.1875 707.363281 327.027344 703 338.308594 L 719.042969 342.242188 C 719.792969 341.066406 720.796875 340.0625 722.023438 339.320312 Z M 722.023438 339.320312 " fill-opacity="1" fill-rule="nonzero"/><path fill="#04247c" d="M 748.824219 345.777344 C 745.28125 344.910156 741.707031 347.078125 740.839844 350.617188 C 739.972656 354.160156 742.140625 357.734375 745.679688 358.601562 C 749.222656 359.46875 752.796875 357.304688 753.664062 353.761719 C 754.53125 350.21875 752.363281 346.644531 748.824219 345.777344 Z M 748.824219 345.777344 " fill-opacity="1" fill-rule="nonzero"/><path fill="#04247c" d="M 728.359375 340.761719 C 724.816406 339.894531 721.242188 342.0625 720.375 345.605469 C 719.507812 349.144531 721.675781 352.71875 725.214844 353.585938 C 728.757812 354.457031 732.332031 352.289062 733.199219 348.746094 C 734.066406 345.207031 731.898438 341.628906 728.359375 340.761719 Z M 728.359375 340.761719 " fill-opacity="1" fill-rule="nonzero"/><path fill="#04247c" d="M 787.871094 435.566406 L 797.207031 430.3125 C 801.535156 427.878906 803.066406 422.394531 800.632812 418.070312 C 800.027344 416.992188 799.230469 416.085938 798.308594 415.371094 L 809.835938 393.066406 L 773.171875 379.511719 L 765.578125 394.203125 L 762.941406 390.894531 L 751.976562 377.140625 L 748.203125 380.148438 L 756.125 390.085938 L 758.972656 393.65625 C 756.351562 392.246094 753.199219 392.222656 750.554688 393.597656 L 704.800781 417.453125 C 701.039062 412.457031 695.941406 404.546875 694.671875 396.992188 L 697.292969 396.863281 C 698.445312 403.175781 702.558594 409.882812 705.574219 414.132812 L 748.496094 391.757812 C 747.277344 389.347656 746.136719 387.445312 745.066406 385.917969 C 743.117188 383.132812 741.394531 381.589844 739.828125 380.527344 C 738.921875 379.910156 737.941406 379.492188 736.9375 379.246094 C 736.515625 379.085938 736.078125 378.949219 735.621094 378.859375 L 693.070312 370.242188 C 692.050781 370.035156 691.039062 370.027344 690.066406 370.171875 C 689.675781 370.230469 689.289062 370.3125 688.910156 370.421875 C 686.753906 370.746094 684.707031 371.84375 683.238281 373.679688 C 679.027344 378.9375 675.289062 386.875 676.613281 397.867188 C 677.238281 403.082031 678.996094 408.980469 682.390625 415.609375 C 687.980469 426.53125 695.671875 434.652344 695.996094 434.996094 C 697.738281 436.816406 700.105469 437.777344 702.503906 437.777344 C 703.917969 437.777344 705.34375 437.445312 706.660156 436.761719 L 754.605469 411.761719 L 755.589844 412.300781 C 755.753906 412.390625 755.925781 412.46875 756.097656 412.546875 L 754.914062 414.839844 C 754.804688 414.789062 754.6875 414.75 754.578125 414.691406 L 740.75 421.902344 C 742.992188 429.117188 745.203125 437.179688 747.117188 445.320312 C 747.761719 448.070312 749.667969 450.359375 752.253906 451.496094 C 753.410156 452 754.640625 452.253906 755.871094 452.253906 C 757.394531 452.253906 758.914062 451.867188 760.277344 451.097656 L 779.667969 440.183594 L 784.550781 441.988281 Z M 774.417969 382.726562 L 806.199219 394.476562 L 783.304688 438.773438 L 751.523438 427.027344 Z M 774.417969 382.726562 " fill-opacity="1" fill-rule="nonzero"/><path fill="#04247c" d="M 691.183594 313.667969 C 694.359375 313.667969 696.933594 311.09375 696.933594 307.917969 C 696.933594 305.9375 695.933594 304.195312 694.414062 303.160156 C 695.957031 299.101562 696.8125 294.703125 696.8125 290.101562 C 696.8125 269.808594 680.359375 253.359375 660.066406 253.359375 C 639.773438 253.359375 623.324219 269.808594 623.324219 290.101562 C 623.324219 310.394531 639.773438 326.84375 660.066406 326.84375 C 671.65625 326.84375 681.984375 321.476562 688.71875 313.09375 C 689.46875 313.453125 690.296875 313.667969 691.183594 313.667969 Z M 677.511719 293.8125 L 663.777344 293.8125 L 663.777344 307.546875 L 656.355469 307.546875 L 656.355469 293.8125 L 642.621094 293.8125 L 642.621094 286.390625 L 656.355469 286.390625 L 656.355469 272.65625 L 663.777344 272.65625 L 663.777344 286.390625 L 677.511719 286.390625 Z M 677.511719 293.8125 " fill-opacity="1" fill-rule="nonzero"/><g clip-path="url(#74bfce3e07)"><path fill="#04247c" d="M 674.542969 354.1875 C 674.542969 351.007812 671.964844 348.433594 668.789062 348.433594 C 667.992188 348.433594 667.230469 348.597656 666.539062 348.890625 C 659.996094 338.757812 648.613281 332.042969 635.652344 332.042969 C 615.359375 332.042969 598.910156 348.492188 598.910156 368.785156 C 598.910156 389.078125 615.359375 405.53125 635.652344 405.53125 C 655.945312 405.53125 672.398438 389.078125 672.398438 368.785156 C 672.398438 365.542969 671.972656 362.398438 671.183594 359.402344 C 673.160156 358.492188 674.542969 356.507812 674.542969 354.1875 Z M 635.652344 347.507812 C 638.457031 347.507812 640.726562 349.777344 640.726562 352.578125 C 640.726562 355.378906 638.457031 357.652344 635.652344 357.652344 C 632.851562 357.652344 630.582031 355.378906 630.582031 352.578125 C 630.582031 349.777344 632.851562 347.507812 635.652344 347.507812 Z M 635.652344 390.066406 C 632.851562 390.066406 630.582031 387.792969 630.582031 384.992188 C 630.582031 382.191406 632.851562 379.921875 635.652344 379.921875 C 638.457031 379.921875 640.726562 382.191406 640.726562 384.992188 C 640.726562 387.792969 638.457031 390.066406 635.652344 390.066406 Z M 653.097656 372.496094 L 618.210938 372.496094 L 618.210938 365.074219 L 653.097656 365.074219 Z M 653.097656 372.496094 " fill-opacity="1" fill-rule="nonzero"/></g><path fill="#04247c" d="M 701.203125 320.414062 C 701.203125 320.691406 701.175781 320.96875 701.121094 321.246094 C 701.066406 321.519531 700.984375 321.785156 700.878906 322.046875 C 700.769531 322.304688 700.640625 322.550781 700.484375 322.785156 C 700.328125 323.015625 700.152344 323.230469 699.953125 323.429688 C 699.753906 323.628906 699.539062 323.804688 699.304688 323.960938 C 699.074219 324.117188 698.828125 324.25 698.566406 324.355469 C 698.308594 324.460938 698.042969 324.542969 697.765625 324.597656 C 697.492188 324.652344 697.214844 324.679688 696.933594 324.679688 C 696.652344 324.679688 696.375 324.652344 696.101562 324.597656 C 695.828125 324.542969 695.558594 324.460938 695.300781 324.355469 C 695.042969 324.25 694.796875 324.117188 694.5625 323.960938 C 694.332031 323.804688 694.113281 323.628906 693.917969 323.429688 C 693.71875 323.230469 693.542969 323.015625 693.386719 322.785156 C 693.230469 322.550781 693.097656 322.304688 692.992188 322.046875 C 692.882812 321.785156 692.804688 321.519531 692.75 321.246094 C 692.695312 320.96875 692.667969 320.691406 692.667969 320.414062 C 692.667969 320.132812 692.695312 319.855469 692.75 319.578125 C 692.804688 319.304688 692.882812 319.039062 692.992188 318.777344 C 693.097656 318.519531 693.230469 318.273438 693.386719 318.042969 C 693.542969 317.808594 693.71875 317.59375 693.917969 317.394531 C 694.113281 317.195312 694.332031 317.019531 694.5625 316.863281 C 694.796875 316.707031 695.042969 316.578125 695.300781 316.46875 C 695.558594 316.363281 695.828125 316.28125 696.101562 316.226562 C 696.375 316.171875 696.652344 316.144531 696.933594 316.144531 C 697.214844 316.144531 697.492188 316.171875 697.765625 316.226562 C 698.042969 316.28125 698.308594 316.363281 698.566406 316.46875 C 698.828125 316.578125 699.074219 316.707031 699.304688 316.863281 C 699.539062 317.019531 699.753906 317.195312 699.953125 317.394531 C 700.152344 317.59375 700.328125 317.808594 700.484375 318.042969 C 700.640625 318.273438 700.769531 318.519531 700.878906 318.777344 C 700.984375 319.039062 701.066406 319.304688 701.121094 319.578125 C 701.175781 319.855469 701.203125 320.132812 701.203125 320.414062 Z M 701.203125 320.414062 " fill-opacity="1" fill-rule="nonzero"/><path fill="#04247c" d="M 682.953125 351.960938 C 680.597656 351.960938 678.6875 353.871094 678.6875 356.226562 C 678.6875 358.585938 680.597656 360.496094 682.953125 360.496094 C 685.3125 360.496094 687.222656 358.585938 687.222656 356.226562 C 687.222656 353.871094 685.3125 351.960938 682.953125 351.960938 Z M 682.953125 351.960938 " fill-opacity="1" fill-rule="nonzero"/><path fill="#04247c" d="M 755.949219 309.152344 C 755.949219 309.433594 755.921875 309.710938 755.867188 309.984375 C 755.8125 310.261719 755.730469 310.527344 755.621094 310.785156 C 755.515625 311.046875 755.382812 311.292969 755.226562 311.523438 C 755.074219 311.757812 754.894531 311.972656 754.699219 312.171875 C 754.5 312.371094 754.285156 312.546875 754.050781 312.703125 C 753.816406 312.859375 753.570312 312.988281 753.3125 313.097656 C 753.054688 313.203125 752.785156 313.285156 752.511719 313.339844 C 752.238281 313.394531 751.960938 313.421875 751.679688 313.421875 C 751.398438 313.421875 751.121094 313.394531 750.847656 313.339844 C 750.570312 313.285156 750.304688 313.203125 750.046875 313.097656 C 749.789062 312.988281 749.542969 312.859375 749.308594 312.703125 C 749.074219 312.546875 748.859375 312.371094 748.660156 312.171875 C 748.464844 311.972656 748.285156 311.757812 748.128906 311.523438 C 747.976562 311.292969 747.84375 311.046875 747.738281 310.785156 C 747.628906 310.527344 747.546875 310.261719 747.492188 309.984375 C 747.4375 309.710938 747.410156 309.433594 747.410156 309.152344 C 747.410156 308.875 747.4375 308.59375 747.492188 308.320312 C 747.546875 308.046875 747.628906 307.777344 747.738281 307.519531 C 747.84375 307.261719 747.976562 307.015625 748.128906 306.78125 C 748.285156 306.550781 748.464844 306.332031 748.660156 306.136719 C 748.859375 305.9375 749.074219 305.761719 749.308594 305.605469 C 749.542969 305.449219 749.789062 305.316406 750.046875 305.210938 C 750.304688 305.101562 750.570312 305.023438 750.847656 304.96875 C 751.121094 304.914062 751.398438 304.886719 751.679688 304.886719 C 751.960938 304.886719 752.238281 304.914062 752.511719 304.96875 C 752.785156 305.023438 753.054688 305.101562 753.3125 305.210938 C 753.570312 305.316406 753.816406 305.449219 754.050781 305.605469 C 754.285156 305.761719 754.5 305.9375 754.699219 306.136719 C 754.894531 306.332031 755.074219 306.550781 755.226562 306.78125 C 755.382812 307.015625 755.515625 307.261719 755.621094 307.519531 C 755.730469 307.777344 755.8125 308.046875 755.867188 308.320312 C 755.921875 308.59375 755.949219 308.875 755.949219 309.152344 Z M 755.949219 309.152344 " fill-opacity="1" fill-rule="nonzero"/><path fill="#04247c" d="M 711.71875 319.855469 C 711.71875 318.316406 710.472656 317.070312 708.933594 317.070312 C 707.398438 317.070312 706.152344 318.316406 706.152344 319.855469 C 706.152344 321.394531 707.398438 322.640625 708.933594 322.640625 C 710.472656 322.640625 711.71875 321.394531 711.71875 319.855469 Z M 711.71875 319.855469 " fill-opacity="1" fill-rule="nonzero"/><path fill="#04247c" d="M 694.460938 353.257812 C 695.996094 353.257812 697.242188 352.011719 697.242188 350.476562 C 697.242188 348.9375 695.996094 347.691406 694.460938 347.691406 C 692.921875 347.691406 691.675781 348.9375 691.675781 350.476562 C 691.675781 352.011719 692.921875 353.257812 694.460938 353.257812 Z M 694.460938 353.257812 " fill-opacity="1" fill-rule="nonzero"/><path fill="#04247c" d="M 745.988281 317.9375 C 745.988281 316.402344 744.742188 315.152344 743.203125 315.152344 C 741.667969 315.152344 740.421875 316.402344 740.421875 317.9375 C 740.421875 319.476562 741.667969 320.722656 743.203125 320.722656 C 744.742188 320.722656 745.988281 319.476562 745.988281 317.9375 Z M 745.988281 317.9375 " fill-opacity="1" fill-rule="nonzero"/><g clip-path="url(#34740a1a6b)"><path fill="#04247c" d="M 778.339844 263.007812 C 778.339844 242.714844 761.890625 226.261719 741.597656 226.261719 C 721.304688 226.261719 704.851562 242.714844 704.851562 263.007812 C 704.851562 283.300781 721.304688 299.75 741.597656 299.75 C 743.226562 299.75 744.828125 299.632812 746.402344 299.429688 C 747.429688 300.390625 748.800781 300.988281 750.320312 300.988281 C 752.910156 300.988281 755.078125 299.261719 755.796875 296.90625 C 769.039062 291.351562 778.339844 278.265625 778.339844 263.007812 Z M 759.039062 266.71875 L 724.152344 266.71875 L 724.152344 259.296875 L 759.039062 259.296875 Z M 759.039062 266.71875 " fill-opacity="1" fill-rule="nonzero"/></g><g clip-path="url(#06033b0426)"><path fill="#04247c" d="M 783.710938 364.308594 C 785.839844 364.816406 787.957031 364.046875 789.320312 362.519531 C 793.902344 364.574219 798.976562 365.722656 804.320312 365.722656 C 824.613281 365.722656 841.066406 349.273438 841.066406 328.980469 C 841.066406 308.6875 824.613281 292.234375 804.320312 292.234375 C 784.027344 292.234375 767.578125 308.6875 767.578125 328.980469 C 767.578125 339.851562 772.300781 349.617188 779.808594 356.34375 C 779.660156 356.671875 779.535156 357.015625 779.449219 357.375 C 778.710938 360.46875 780.621094 363.570312 783.710938 364.308594 Z M 789.363281 319.269531 L 794.609375 314.019531 L 804.320312 323.730469 L 814.03125 314.019531 L 819.28125 319.269531 L 809.570312 328.980469 L 819.28125 338.691406 L 814.03125 343.9375 L 804.320312 334.226562 L 794.609375 343.9375 L 789.363281 338.691406 L 799.074219 328.980469 Z M 789.363281 319.269531 " fill-opacity="1" fill-rule="nonzero"/></g><path fill="#04247c" d="M 768.691406 359.824219 C 770.984375 360.371094 773.285156 358.953125 773.832031 356.660156 C 774.378906 354.367188 772.964844 352.066406 770.671875 351.519531 C 768.378906 350.972656 766.074219 352.386719 765.527344 354.679688 C 764.980469 356.976562 766.398438 359.277344 768.691406 359.824219 Z M 768.691406 359.824219 " fill-opacity="1" fill-rule="nonzero"/><path fill="#04247c" d="M 755.550781 361.289062 C 755.195312 362.785156 756.117188 364.285156 757.613281 364.640625 C 759.109375 365 760.609375 364.074219 760.96875 362.582031 C 761.324219 361.085938 760.398438 359.582031 758.90625 359.226562 C 757.410156 358.871094 755.910156 359.792969 755.550781 361.289062 Z M 755.550781 361.289062 " fill-opacity="1" fill-rule="nonzero"/></svg>