<?xml version="1.0" encoding="UTF-8"?>
<svg version="1.1" xmlns="http://www.w3.org/2000/svg" width="512" height="512">
<path d="M0 0 C3.14128781 1.90563986 5.72930223 4.17847087 8.38676453 6.68768311 C8.94349193 7.20786892 9.50021933 7.72805473 10.07381725 8.26400375 C18.16365484 15.88223217 25.97578289 23.78801719 33.81962585 31.65740967 C35.5271845 33.36683792 37.23496741 35.07604216 38.94296265 36.78503418 C43.3952913 41.24114532 47.84460637 45.70025323 52.29325867 50.16003418 C56.85032941 54.72741181 61.41030175 59.29189061 65.97001648 63.85662842 C74.88493649 72.78221029 83.79676853 81.7108686 92.7063446 90.64178467 C95.86329974 89.24536072 97.97717536 87.61202972 100.39842224 85.16329956 C101.11597687 84.44271362 101.83353149 83.72212769 102.5728302 82.97970581 C103.35004425 82.18901703 104.1272583 81.39832825 104.92802429 80.5836792 C105.75456512 79.75100525 106.58110596 78.9183313 107.43269348 78.0604248 C109.6965825 75.77848784 111.95608687 73.49230287 114.21436977 71.20482111 C116.5841247 68.80762152 118.96118448 66.4176947 121.33799744 64.02749634 C129.42927356 55.88798234 137.50878179 47.73684744 145.57939148 39.57684326 C150.03864713 35.06835024 154.50517244 30.56718498 158.97948384 26.07363212 C161.3440795 23.69813747 163.70331868 21.31783706 166.05591583 18.93042374 C168.68385823 16.26394887 171.32398469 13.61011594 173.96708679 10.9586792 C174.73620392 10.17203888 175.50532104 9.38539856 176.29774475 8.57492065 C183.11282221 1.78423287 189.90433689 -2.44732362 199.7688446 -2.67071533 C208.42514462 -2.56491611 214.67360227 -0.58283118 221.0813446 5.32928467 C227.99970619 12.97589485 229.41557377 19.78248614 229.07743835 30.05975342 C227.34128287 46.81822271 208.53169686 59.948726 197.32743835 71.11834717 C195.54646245 72.89745508 193.76570936 74.67678607 191.98516846 76.45632935 C187.80115154 80.63693758 183.61491806 84.81531553 179.42756563 88.99258268 C174.18419879 94.22359924 168.94435069 99.45813628 163.70439148 104.69256592 C154.3745017 114.01177142 145.04153745 123.32789149 135.7063446 132.64178467 C140.10583977 137.91413981 144.74865091 142.80147669 149.6360321 147.621521 C150.79331818 148.76938835 150.79331818 148.76938835 151.97398376 149.94044495 C153.63929624 151.5919733 155.30567239 153.24242965 156.9730072 154.89191628 C159.61660843 157.50872231 162.25567647 160.13001851 164.89335632 162.75279236 C172.38964421 170.20648556 179.88825362 177.65775785 187.40361023 185.09222412 C192.00983469 189.64978067 196.60611188 194.2171677 201.19615173 198.79102135 C202.94030921 200.52531807 204.68810693 202.2559622 206.43968201 203.98276711 C208.89474446 206.403872 211.33690515 208.8373452 213.7766571 211.27386475 C214.49371826 211.97497375 215.21077942 212.67608276 215.9495697 213.3984375 C224.35064373 221.85013329 228.98651827 229.77794614 229.0254364 241.8036499 C228.86618898 250.3444488 225.81126108 256.672533 219.7063446 262.64178467 C210.86125743 268.39811124 203.12750618 269.51902241 192.7063446 268.64178467 C177.29042978 264.60428317 163.54006314 245.60838395 152.6907196 234.72381592 C150.98173148 233.01295867 149.27251944 231.30232507 147.56309509 229.59190369 C143.10253369 225.12755601 138.64498565 220.6602117 134.18809509 216.19219971 C129.62440804 211.6182141 125.05782685 207.04711987 120.49150085 202.47576904 C111.56030816 193.5339078 102.63220277 184.58897074 93.7063446 175.64178467 C88.38557681 180.08234812 83.44736424 184.77352851 78.57133484 189.69500732 C77.39919937 190.87174263 77.39919937 190.87174263 76.2033844 192.07225037 C74.51741635 193.76533818 72.83257608 195.45954964 71.14875603 197.15477371 C68.48190371 199.83909824 65.81145173 202.51979291 63.13995361 205.19949341 C55.54850678 212.81532667 47.96272123 220.43677742 40.38139343 228.06268311 C35.73533026 232.73597743 31.08395707 237.40394767 26.42978096 242.06916428 C24.6604831 243.84466353 22.89308418 245.62205723 21.12763786 247.40138626 C18.66030105 249.88796038 16.1868456 252.36829356 13.71195984 254.84735107 C12.98711899 255.58095352 12.26227814 256.31455597 11.51547241 257.07038879 C3.97246231 264.59892534 -2.5147932 268.88316473 -13.5436554 269.07928467 C-22.53536584 268.93823823 -28.50224768 266.38935652 -35.1686554 260.45428467 C-41.42185702 253.58019778 -43.0043067 245.86879781 -42.67256165 236.75115967 C-41.18006487 224.50345414 -31.27336267 216.46771943 -22.97163391 208.20623779 C-22.17081894 207.40527679 -21.37000397 206.6043158 -20.54492188 205.77908325 C-17.92316767 203.15802027 -15.29789977 200.54050745 -12.67256165 197.92303467 C-10.84388726 196.09622728 -9.01543496 194.26919755 -7.18719482 192.44195557 C-2.88269354 188.14086955 1.42402494 183.84201555 5.73185068 179.54425955 C10.64080685 174.64652659 15.54688371 169.74591368 20.45273483 164.84507084 C30.53409727 154.77412775 40.61902491 144.70676064 50.7063446 134.64178467 C49.32972429 131.54780662 47.75579317 129.44803862 45.35520935 127.07032776 C44.6627562 126.37946075 43.97030304 125.68859375 43.25686646 124.97679138 C42.49737198 124.22920059 41.7378775 123.4816098 40.95536804 122.71136475 C40.15516739 121.91569092 39.35496674 121.12001709 38.53051758 120.30023193 C36.79152123 118.57219681 35.05025814 116.84644053 33.30701447 115.1226902 C30.54452795 112.39035556 27.78876163 109.65140701 25.03477478 106.9105072 C18.1897698 100.10024468 11.33629756 93.29853042 4.47740173 86.5022583 C-1.31231973 80.76538285 -7.09609032 75.0226573 -12.87116241 69.27103233 C-14.69421934 67.45851466 -16.52018345 65.64891606 -18.34914398 63.84235573 C-20.91470798 61.30815053 -23.47078535 58.76471302 -26.02510071 56.21917725 C-26.77649826 55.48170761 -27.52789581 54.74423798 -28.30206299 53.98442078 C-36.25747581 46.01506177 -42.52636305 37.98302789 -42.6686554 26.32928467 C-42.49195553 17.18246791 -39.39230634 11.03407513 -33.2311554 4.36834717 C-24.44086635 -3.4649346 -10.56566285 -5.10496458 0 0 Z " fill="#48AAEE" transform="translate(159.2936553955078,119.35821533203125)"/>
</svg>
